<svg xmlns="http://www.w3.org/2000/svg" width="71" height="71" viewBox="0 0 71 71">
    <g fill="none" fill-rule="evenodd">
        <g>
            <g>
                <path d="M0 0H71V71H0z" transform="translate(-555 -512) translate(555 512)"/>
                <path fill="#FFF" fill-rule="nonzero" d="M35.5 6.455c16.036 0 29.045 13.009 29.045 29.045S51.536 64.545 35.5 64.545 6.455 51.536 6.455 35.5 19.464 6.455 35.5 6.455zm0 4.468c-13.568 0-24.577 11.009-24.577 24.577 0 13.568 11.009 24.577 24.577 24.577 13.568 0 24.577-11.009 24.577-24.577 0-13.568-11.009-24.577-24.577-24.577zm14.843 11.695c.872.732 1.043 1.99.44 2.922l-.167.226L31.85 48.108c-.811.965-2.24 1.058-3.167.258l-.205-.2-8.043-8.937c-.826-.917-.751-2.33.166-3.155.846-.762 2.115-.758 2.955-.031l.2.197 6.322 7.026 17.118-20.374c.793-.945 2.203-1.068 3.148-.274z" transform="translate(-555 -512) translate(555 512)"/>
            </g>
        </g>
    </g>
</svg>
