<svg xmlns="http://www.w3.org/2000/svg" width="103" height="26" viewBox="0 0 103 26">
    <path fill="#F5803A" fill-rule="evenodd" d="M26.81 12.045h-.467V5.847c1.988 0 3.275.818 3.275 2.924 0 1.637-1.014 3.274-2.807 3.274zM30.626 26c-.181-.601-2.238-8.004 4.335-13.355.35-.284.699-.537 1.049-.772.397-.927.586-1.987.586-3.181 0-3.274-1.56-6.471-4.678-7.796C30.24.194 28.292 0 26.499 0h-7.172v26h7.016v-7.368c0-1.13-.04-2.299-.117-3.43 1.287 3.625 2.65 7.212 3.976 10.798h.423zm5.705-3.035s-1.345-1.604-1.948-4.038l-.665-1.375c-.194 3.632 1.903 5.999 1.903 5.999s-1.262-.553-2.803.258c-1.388.729-2.041 1.954-2.157 2.191h7.144l-1.471-3.04-.003.005zM52.49 6.12V0H39.473v10.232c5.292-1.538 9.774 1.19 9.774 1.19s-1.278.06-2.461 1.331c-1.184 1.27-1.3 2.797-1.3 2.797s-1.8-2.577-6.013-3.059v.264c3.54.898 5.298 3.375 5.298 3.375s-3.363 1.125-4.958 2.506c-.112.097-.226.203-.34.315V26h6.349c-.437-.09-.872-.328-1.241-.785l-1.746-2.155.173-.14-2.627-3.096s-.197-.25.107-.497c.305-.246.508-.001.508-.001l2.483 3.213.172-.14 1.523 1.881c.513.633 1.27.861 1.89.358.624-.507.714-.979.119-1.713-.194-.24-.156-.589.084-.783l.433-.351.509.628c.372.459.597.976.548 1.517-.046.513-.34 1.047-.988 1.573-.273.222-.654.409-1.076.491h5.799v-6.237h-6.003v-3.976h5.38V9.9h-5.38V6.12h6.003zm41.297 11.031C93.24 13.526 92.773 9.9 92.46 6.236c-.155 1.209-.272 2.456-.428 3.664-.351 2.417-.741 4.834-1.21 7.251h2.964zM95.15 26l-.546-3.313h-4.716L89.304 26h-7.25L88.33 0h8.575l5.497 26H95.15zm-27.045 0V0h7.017v19.763h5.263V26h-12.28zM54.16 26V0h7.016v19.763h5.262V26H54.16zM7.017 20.348c.195.039.39.039.585.039 1.598 0 2.884-.819 2.884-2.534 0-1.754-1.325-2.495-2.924-2.495-.194 0-.35.039-.545.039v4.951zm0-10.252c.156.038.273.038.428.038 1.443 0 2.768-.662 2.768-2.26 0-1.559-1.052-2.261-2.494-2.261-.235 0-.47 0-.702.039v4.444zM8.147 0c1.91 0 3.898.194 5.575 1.169 2.22 1.287 3.43 3.664 3.43 6.198 0 3.157-1.676 5.029-4.834 5.302 3.47.428 5.34 2.338 5.34 5.886 0 4.599-3.352 7.445-7.834 7.445H0V0h8.147z"/>
</svg>
