<svg version="1.1" xmlns="http://www.w3.org/2000/svg" fill="#fff" height="50px" viewBox="0 0 512 512" width="50px">
<path d="M298.667,-1.42108547e-14 C345.516361,-1.42108547e-14 384.465459,34.5084438 391.426983,79.4402469 L455.791645,110.516726 C461.746804,105.456249 469.45584,102.4 477.867,102.4 C496.691,102.4 512,117.709 512,136.533 C512,155.358 496.691,170.666 477.867,170.666 C459.043,170.666 443.734,155.357 443.734,136.533 C443.734,132.363484 444.485045,128.366422 445.858999,124.669982 L392.402716,98.8616677 C391.054574,124.446952 379.411481,147.350984 361.549697,163.497503 L405.398209,221.959843 C406.791234,221.898166 408.192049,221.867 409.6,221.867 C461.355,221.867 503.467,263.979 503.467,315.734 C503.467,366.597366 462.79351,408.147129 412.26615,409.563669 C412.101758,409.566246 411.938151,409.570534 411.774518,409.574388 C411.052198,409.592689 410.32705,409.601 409.6,409.601 L410.68858,409.59358 C410.32582,409.597858 409.962954,409.6 409.6,409.6 L409.985,409.598 L409.6,409.601 C409.471447,409.601 409.342954,409.60074 409.214521,409.600221 C408.980215,409.598218 408.745295,409.596341 408.51042,409.593568 C408.147445,409.59062 407.785798,409.584414 407.424648,409.576158 C407.261849,409.570534 407.098242,409.566246 406.934662,409.561524 C373.117378,408.61562 343.714682,389.690978 327.964917,362.028899 L293.630265,387.778264 C296.894641,397.303742 298.667,407.515428 298.667,418.133 C298.667,419.187954 298.649503,420.238901 298.614783,421.285567 L361.923648,451.850573 C367.878944,446.78959 375.58837,443.733 384,443.733 C402.825,443.733 418.133,459.043 418.133,477.867 C418.133,496.691 402.825,512 384,512 C365.175,512 349.867,496.69 349.867,477.866 C349.867,473.69686 350.617909,469.700144 351.991626,466.003984 L296.301925,439.118205 C287.013349,479.63116 251.429667,510.233188 208.549051,511.926116 C208.431113,511.928671 208.313803,511.93321 208.196479,511.937525 C207.995743,511.946555 207.794449,511.953111 207.592997,511.959028 C207.22627,511.968841 206.860011,511.977741 206.493631,511.984462 C205.930485,511.994967 205.365819,512 204.8,512 L206.099621,511.99085 C205.666561,511.996947 205.233343,512 204.8,512 C204.366657,512 203.933439,511.996947 203.500379,511.99085 C203.368612,511.989342 203.237295,511.987278 203.106043,511.984943 C202.739989,511.977741 202.37373,511.968841 202.00761,511.957769 C201.805551,511.953112 201.604257,511.946556 201.403122,511.939365 C201.286197,511.93321 201.168887,511.928671 201.051594,511.92391 C153.875398,510.063669 115.53171,473.21182 111.317509,426.666636 L67.1868257,426.665793 C63.3894252,441.372977 50.0124623,452.266 34.133,452.266 C15.309,452.266 -3.62376795e-13,436.957 -3.62376795e-13,418.133 C-3.62376795e-13,399.309 15.309,384 34.133,384 C50.0121031,384 63.3888199,394.892531 67.1865679,409.599209 L111.317781,409.598356 C115.644496,361.827419 155.921869,324.267 204.8,324.267 C239.736472,324.267 270.278887,343.455853 286.439923,371.846851 L320.772996,346.098359 C317.506539,336.570101 315.733,326.355107 315.733,315.734 C315.733,272.050478 345.734055,235.236736 386.212341,224.8166 L347.911544,173.750596 C334.583332,181.997396 319.048608,187.003462 302.416051,187.660116 C302.298113,187.662671 302.180803,187.66721 302.063479,187.671525 C301.862743,187.680555 301.661449,187.687111 301.459997,187.693028 C301.09327,187.702841 300.727011,187.711741 300.360631,187.718462 C299.797485,187.728967 299.232819,187.734 298.667,187.734 L299.937617,187.725254 C299.514218,187.731082 299.090669,187.734 298.667,187.734 L298.932,187.732 L298.667,187.734 C298.578124,187.734 298.489277,187.733876 298.400459,187.733628 C298.065914,187.73265 297.731102,187.729861 297.396383,187.725254 C297.25492,187.723644 297.113944,187.721449 296.973043,187.718942 C296.606989,187.711741 296.24073,187.702841 295.87461,187.691769 C295.672551,187.687111 295.471257,187.680555 295.270122,187.673364 C295.153197,187.66721 295.035887,187.662671 294.918594,187.65791 C250.705264,185.914598 214.249906,153.435983 206.376132,111.048526 L166.387628,145.269083 C178.879232,160.458423 186.702086,179.624792 187.639064,200.551267 L235.110878,237.55327 C240.887485,233.070913 248.136942,230.4 256,230.4 C274.825,230.4 290.133,245.709 290.133,264.533 C290.133,283.357 274.825,298.666 256,298.666 C237.176,298.666 221.867,283.358 221.867,264.533 C221.867,259.744066 222.857769,255.182632 224.645159,251.042892 L186.306576,221.160533 C178.753796,263.948953 142.113757,296.836346 97.6160512,298.593116 C97.4981127,298.595671 97.3808034,298.60021 97.2634786,298.604525 C97.062743,298.613555 96.8614486,298.620111 96.6599971,298.626028 C96.2932698,298.635841 95.9270105,298.644741 95.5606314,298.651462 C94.9974853,298.661967 94.4328189,298.667 93.867,298.667 L95.1376169,298.658254 C94.7142179,298.664082 94.290669,298.667 93.867,298.667 L94.133,298.665 L93.867,298.667 C93.7781817,298.667 93.6893919,298.666876 93.6006306,298.666628 C93.2661193,298.665652 92.9312043,298.662863 92.5963831,298.658254 C92.4548003,298.656642 92.3138845,298.654448 92.1730434,298.651942 C91.8069895,298.644741 91.4407302,298.635841 91.0746103,298.624769 C90.8725514,298.620111 90.671257,298.613555 90.4701217,298.606364 C90.3531966,298.60021 90.2358873,298.595671 90.118594,298.59091 C40.0936111,296.618154 1.42108547e-14,255.299487 1.42108547e-14,204.8 C1.42108547e-14,155.921187 37.5614668,115.643372 85.3333553,111.3176 L85.3342049,67.1870834 C70.6265163,63.3900305 59.733,50.0128216 59.733,34.133 C59.733,15.309 75.042,-3.90798505e-13 93.867,-3.90798505e-13 C112.691,-3.90798505e-13 128,15.309 127.999,34.133 C127.999,50.011026 117.107501,63.3881624 102.400774,67.1863384 L102.401496,111.31769 C122.101449,113.101772 140.065265,120.999819 154.374645,133.093708 L204.884039,89.8690243 C206.985986,39.9606719 248.251304,-1.42108547e-14 298.667,-1.42108547e-14 Z M384,460.8 C374.588,460.8 366.933,468.453 366.933,477.866 C366.933,487.279 374.588,494.933 384,494.933 C393.412,494.933 401.067,487.28 401.067,477.867 C401.067,468.454 393.412,460.8 384,460.8 Z M229.554,460.8 L180.044,460.8 C174.873,460.8 170.666,464.691 170.666,469.47 L170.666,469.47 L170.666,486.869 C191.906,497.45 217.693,497.45 238.933,486.869 L238.933,486.869 L238.932,486.869 L238.932,469.47 C238.932,464.691 234.725,460.8 229.554,460.8 L229.554,460.8 Z M204.8,341.333 C162.449,341.333 128,375.782 128,418.133 C128,440.830821 137.895041,461.258891 153.598384,475.330473 L153.6,469.461 C153.6,455.279 165.462,443.733 180.045,443.733 L180.045,443.733 L229.555,443.733 C244.139,443.733 256,455.279 256,469.47 L256,469.47 L256.000615,475.33137 C271.704538,461.25976 281.6,440.831303 281.6,418.133 C281.6,375.782 247.151,341.333 204.8,341.333 Z M34.133,401.066 C24.72,401.066 17.066,408.72 17.066,418.133 C17.066,427.546 24.721,435.2 34.133,435.2 C43.546,435.2 51.2,427.546 51.2,418.133 C51.2,408.72 43.545,401.066 34.133,401.066 Z M204.8,358.4 C223.625,358.4 238.933,373.709 238.933,392.533 C238.933,411.357 223.624,426.666 204.8,426.666 C185.976,426.666 170.667,411.358 170.667,392.533 C170.667,373.709 185.975,358.4 204.8,358.4 Z M204.8,375.466 C195.387,375.466 187.733,383.121 187.733,392.533 C187.733,401.946 195.388,409.6 204.8,409.6 C214.212,409.6 221.867,401.946 221.867,392.533 C221.867,383.12 214.212,375.466 204.8,375.466 Z M434.354,358.4 L384.844,358.4 C379.673,358.4 375.466,362.291 375.466,367.07 L375.466,367.07 L375.466,384.469 C396.706,395.05 422.494,395.05 443.733,384.469 L443.733,384.469 L443.732,384.469 L443.732,367.07 C443.732,362.291 439.525,358.4 434.354,358.4 L434.354,358.4 Z M409.6,238.933 C367.249,238.933 332.8,273.382 332.8,315.733 C332.8,338.431303 342.695462,358.85976 358.399385,372.93137 L358.4,367.061 C358.4,352.879 370.262,341.333 384.845,341.333 L384.845,341.333 L434.355,341.333 C448.939,341.333 460.8,352.879 460.8,367.07 L460.8,367.07 L460.801616,372.930473 C476.504959,358.858891 486.4,338.430821 486.4,315.733 C486.4,273.382 451.951,238.933 409.6,238.933 Z M409.6,256 C428.425,256 443.733,271.309 443.733,290.133 C443.733,308.957 428.425,324.266 409.6,324.266 C390.776,324.266 375.467,308.958 375.467,290.133 C375.467,271.309 390.775,256 409.6,256 Z M409.6,273.066 C400.187,273.066 392.533,280.721 392.533,290.133 C392.533,299.546 400.188,307.2 409.6,307.2 C419.012,307.2 426.667,299.546 426.667,290.133 C426.667,280.72 419.012,273.066 409.6,273.066 Z M256,247.466 C250.520676,247.466 245.637375,250.059839 242.512834,254.084192 L242.483,254.124 C242.473985,254.135524 242.464946,254.147018 242.455885,254.158483 C240.247228,257.034534 238.933,260.632925 238.933,264.533 C238.933,273.946 246.588,281.6 256,281.6 C265.412,281.6 273.067,273.946 273.067,264.533 C273.067,255.12 265.412,247.466 256,247.466 Z M118.621,247.467 L69.111,247.467 C63.94,247.467 59.733,251.358 59.733,256.137 L59.733,256.137 L59.733,273.536 C80.973,284.117 106.761,284.117 128,273.536 L128,273.536 L127.999,273.536 L127.999,256.137 C127.999,251.358 123.792,247.467 118.621,247.467 L118.621,247.467 Z M93.867,128 C51.516,128 17.067,162.449 17.067,204.8 C17.067,227.498303 26.9624617,247.92676 42.6663852,261.99837 L42.667,256.128 C42.667,241.946 54.529,230.4 69.112,230.4 L69.112,230.4 L118.622,230.4 C133.205,230.4 145.067,241.946 145.067,256.137 L145.067,256.137 L145.068616,261.997473 C160.771959,247.925891 170.667,227.497821 170.667,204.8 L170.666188,204.968723 C170.664139,204.866334 170.663923,204.763872 170.665545,204.66139 C170.591523,162.373574 136.171611,128 93.867,128 Z M93.867,145.067 C112.691,145.067 128,160.376 128,179.2 C128,198.024 112.692,213.333 93.867,213.333 C75.043,213.333 59.734,198.024 59.734,179.2 C59.734,160.376 75.042,145.067 93.867,145.067 Z M93.867,162.133 C84.454,162.133 76.8,169.787 76.8,179.2 C76.8,188.613 84.455,196.267 93.867,196.267 C103.279,196.267 110.934,188.613 110.934,179.2 C110.934,169.787 103.279,162.133 93.867,162.133 Z M323.421,136.534 L273.911,136.534 C268.74,136.534 264.533,140.425 264.533,145.204 L264.533,145.204 L264.533,162.603 C285.773,173.184 311.561,173.184 332.8,162.603 L332.8,162.603 L332.799,162.603 L332.799,145.204 C332.799,140.425 328.592,136.534 323.421,136.534 L323.421,136.534 Z M477.867,119.466 C468.454,119.466 460.8,127.121 460.8,136.533 C460.8,145.946 468.455,153.6 477.867,153.6 C487.279,153.6 494.933,145.946 494.934,136.533 C494.934,127.12 487.28,119.466 477.867,119.466 Z M298.667,17.067 C256.316,17.067 221.867,51.516 221.867,93.867 L221.869993,93.5144925 C221.879104,93.7429964 221.879058,93.9716554 221.869901,94.1998801 C221.963821,116.764267 231.838758,137.061636 247.465384,151.064473 L247.467,145.195 C247.467,131.013 259.329,119.467 273.912,119.467 L273.912,119.467 L323.422,119.467 C338.005,119.467 349.867,131.012 349.867,145.204 L349.867,145.204 L349.867615,151.06537 C365.571538,136.99376 375.467,116.565303 375.467,93.867 C375.467,51.516 341.018,17.067 298.667,17.067 Z M298.667,34.133 C317.491,34.133 332.8,49.443 332.8,68.267 C332.8,87.091 317.491,102.399 298.667,102.399 C279.843,102.399 264.534,87.09 264.534,68.266 C264.534,49.442 279.842,34.133 298.667,34.133 Z M298.667,51.199 C289.254,51.199 281.6,58.854 281.6,68.266 C281.6,77.679 289.255,85.333 298.667,85.333 C308.079,85.333 315.733,77.679 315.734,68.266 C315.734,58.853 308.08,51.199 298.667,51.199 Z M93.867,17.066 C84.454,17.066 76.8,24.721 76.8,34.133 C76.8,43.546 84.455,51.2 93.867,51.2 C103.279,51.2 110.933,43.546 110.934,34.133 C110.934,24.72 103.279,17.066 93.867,17.066 Z" id="Combined-Shape"/>
        </svg>