<svg xmlns="http://www.w3.org/2000/svg" width="477px" height="62px" viewBox="0 0 477 62">
<g fill="#FFF" fill-rule="evenodd">
<path d="M224.802 52.465s-9.418-11.362-6.579-26.035c-5.645 16.472 4.373 27.931 4.373 27.931s-3.954-1.748-8.753.885c-.684.374-1.303.79-1.874 1.226l.616 4.045h16.122l-2.225-10.656c-1.037 1.559-1.68 2.604-1.68 2.604zm-4.65-32.928l-3.67-17.586h-19.026l-13.83 58.566h16.045l1.3-7.534h4.656c-.15-3.556.088-7.847 1.243-12.429h-3.837l2.14-13.593c.612-3.65.994-7.378 1.452-11.03h.153c.382 3.652.688 7.38 1.146 11.03l.95 7.675c2.193-5.124 5.72-10.348 11.279-15.099zM24.393 42.171c0-3.975-3.025-5.611-6.67-5.611h-1.24v11.3H17.8c3.489 0 6.593-1.715 6.593-5.689zm-7.91-17.535h.93c3.257 0 6.282-1.325 6.282-5.144 0-3.508-2.405-4.987-5.662-4.987h-1.55v10.13zm23.887 19.17c0 7.249-4.343 16.758-18.458 16.758H.66V1.802h18.612c9.307 0 20.166 4.051 20.166 16.755 0 6.625-4.266 11.768-10.937 11.768v.157c7.757.622 11.867 5.454 11.867 13.325zM169.62 1.803H153.8v58.762h27.687V46.69H169.62V1.801zm-31.423 0h-15.823v58.762h27.688V46.69h-11.865V1.801zM67.334 21.519c0-5.145-3.102-7.327-7.445-7.092v14.495l1.007.078c4.189 0 6.438-3.663 6.438-7.481zm6.593 14.574l11.788 24.47h-17.14l-8.764-24.47-.156.155c.079 2.883.234 5.767.234 8.65v15.666H44.067V1.802h15.279C73.073 1.802 83 5.853 83 21.362c0 6.47-2.792 12.236-9.074 14.73zM89.133 1.802h30.165v13.872h-14.342v8.183h12.177v13.871h-12.177v8.963h13.573v13.873H89.133V1.802zm203.396-.16h29.605v13.972h-13.67v8.242h12.265v13.97h-12.265v9.027h13.67v13.972h-29.605zm53.863 45.289c6.014 0 6.249-12.008 6.249-15.698 0-3.689-.235-15.698-6.249-15.698-6.014 0-6.25 12.01-6.25 15.698 0 3.69.236 15.698 6.25 15.698m0-46.31c16.17 0 22.498 16.17 22.498 30.612 0 14.443-6.328 30.612-22.498 30.612-16.169 0-22.496-16.17-22.496-30.612 0-14.442 6.327-30.611 22.496-30.611m43.338 13.736l-1.171.078v13.657c4.375.236 7.108-2.197 7.108-6.593 0-3.768-2.03-7.142-5.937-7.142zm-17.106 46.467V1.642h14.529c13.905 0 24.606 4.552 24.606 20.093 0 15.385-9.374 20.095-23.2 19.703v19.387h-15.935zm42.86-.001V1.642h15.936v45.211h11.951v13.971zM447.05 1.642h29.605v13.972h-13.669v8.242h12.264v13.97h-12.264v9.027h13.669v13.972H447.05zM254.886 60.824c-.798-.423-1.57-1.036-2.268-1.912l-1.512-1.889v3.801h3.78zm12.156-32.731V14.436l1.171-.078c3.906 0 5.938 3.375 5.938 7.143 0 4.394-2.734 6.828-7.11 6.592m-1.405-26.451h-14.53v8.799c8.296 1.274 13.91 4.727 13.91 4.727s-3.988.218-7.661 4.319c-3.674 4.1-4.003 9.002-4.003 9.002s-7.654-11.12-25.84-9.805c15.75.438 23.58 11.68 23.58 11.68l.014.222V51.64l3.373 4.217c1.637 2.05 4.039 2.773 5.992 1.124 1.965-1.66 2.24-3.197.341-5.571a1.842 1.842 0 01.25-2.548l1.365-1.152 1.625 2.032c1.186 1.484 1.911 3.163 1.768 4.921-.137 1.67-1.054 3.412-3.098 5.136a7.485 7.485 0 01-1.628 1.025h5.948V41.436c13.826.393 23.2-4.316 23.2-19.7 0-15.541-10.702-20.094-24.606-20.094" />
<path d="M250.56 52.096L242.634 41.7s-.649-.791-1.607.017c-.96.81-.33 1.616-.33 1.616l8.384 10.012-.546.46 2.573 3.219V51.64l-.002-.003-.544.46z" />
</g>
        </svg>