<svg version="1.1" xmlns="http://www.w3.org/2000/svg" fill="#fff" height="50" viewBox="0 0 512 512" width="50">
<path d="M237.906927,305.084746 C251.58461,305.084746 262.711864,316.098664 262.711864,329.638234 L262.711864,329.638234 L262.711864,426.630918 C262.711864,440.169511 251.58461,451.184407 237.906927,451.184407 L237.906927,451.184407 L114.288215,451.184407 C111.566903,451.184407 108.926587,452.145582 106.853253,453.890952 L106.853253,453.890952 L55.7241849,496.911136 C53.3031551,498.947889 50.340826,500 47.3300962,500 C45.4770354,500 43.6042192,499.601058 41.8291924,498.788508 C37.1698706,496.65593 34.2756978,492.174682 34.2756978,487.093065 L34.2756978,487.093065 L34.2756978,451.185385 L24.8049373,451.185385 C11.1272546,451.185385 0,440.170489 0,426.631896 L0,426.631896 L0,329.639212 C0,316.099642 11.1272546,305.084746 24.8049373,305.084746 L24.8049373,305.084746 Z M237.906927,319.737051 L24.8049373,319.737051 C19.2892169,319.737051 14.8017675,324.179187 14.8017675,329.639212 L14.8017675,329.639212 L14.8017675,426.631896 C14.8017675,432.091921 19.2892169,436.53308 24.8049373,436.53308 L24.8049373,436.53308 L36.0606023,436.53308 C43.2377556,436.53308 49.0774653,442.313822 49.0774653,449.419481 L49.0774653,449.419481 L49.0774653,483.274763 L97.2669233,442.726453 C102.014157,438.733126 108.059323,436.53308 114.288215,436.53308 L114.288215,436.53308 L237.906927,436.53308 C243.422647,436.53308 247.910097,432.091921 247.910097,426.631896 L247.910097,426.631896 L247.910097,329.639212 C247.910097,324.179187 243.422647,319.737051 237.906927,319.737051 L237.906927,319.737051 Z M55.9593628,338.475524 C62.0578348,332.810815 70.0163551,330.011772 78.3698369,330.580908 C92.855262,331.575467 104.706973,343.178031 105.936805,357.567266 C106.813753,367.830743 102.412754,377.646906 94.1625556,383.824598 C93.4940858,384.326161 93.1106002,385.075174 93.1106002,385.882242 C93.1106002,386.762594 93.5572031,387.567759 94.306004,388.036963 C104.240288,394.257483 110.171403,404.934963 110.169491,416.598438 C110.169491,420.536705 106.961983,423.728814 103.004718,423.728814 L103.004718,423.728814 L49.5376536,423.728814 C45.5803888,423.728814 42.3728814,420.536705 42.3728814,416.598438 C42.3728814,404.934012 48.3039968,394.256531 58.2382806,388.036963 C58.9870815,387.568711 59.4336844,386.763546 59.4336844,385.883194 C59.4336844,385.083739 59.0788885,384.343292 58.4840556,383.901688 C50.9788324,378.330249 46.4975026,369.447735 46.4975026,360.140749 C46.4975026,351.957758 49.9460035,344.061238 55.9593628,338.475524 Z M212.76901,398.305085 C216.949066,398.305085 220.338983,402.098962 220.338983,406.779661 C220.338983,411.46036 216.950076,415.254237 212.76901,415.254237 L212.76901,415.254237 L168.586922,415.254237 C164.405856,415.254237 161.016949,411.46036 161.016949,406.779661 C161.016949,402.098962 164.405856,398.305085 168.586922,398.305085 L168.586922,398.305085 Z M136.202796,398.305085 C140.546813,398.305085 144.068846,402.098962 144.067797,406.779661 C144.067797,411.46036 140.546813,415.254237 136.202796,415.254237 L136.202796,415.254237 L126.509068,415.254237 C122.165052,415.254237 118.644068,411.46036 118.644068,406.779661 C118.644068,402.098962 122.165052,398.305085 126.509068,398.305085 L126.509068,398.305085 Z M77.3829115,344.8093 C73.032598,344.506649 68.8984135,345.962799 65.7368095,348.901747 C62.570424,351.841647 60.8270471,355.83321 60.8270471,360.140749 C60.8270471,365.040265 63.0954453,369.534343 67.0507974,372.470436 C71.2538372,375.590213 73.7632288,380.603937 73.7632288,385.883194 C73.7632288,391.694469 70.8129722,397.011795 65.8697384,400.107779 C62.2510121,402.373853 59.5522684,405.661135 58.0508413,409.469014 L58.0508413,409.469966 L94.4934433,409.469966 C92.9920162,405.662087 90.2932725,402.374805 86.6745462,400.108731 C81.7313124,397.013699 78.7800995,391.695421 78.7800995,385.884146 C78.7800995,380.632489 81.3095739,375.602586 85.546085,372.430463 C89.8284995,369.222175 92.1141116,364.118037 91.6569892,358.776917 C91.0210344,351.328663 84.8843094,345.323235 77.3829115,344.8093 Z M212.76901,364.40678 C216.949066,364.40678 220.338983,368.200657 220.338983,372.881356 C220.338983,377.562055 216.950076,381.355932 212.76901,381.355932 L212.76901,381.355932 L168.586922,381.355932 C164.405856,381.355932 161.016949,377.562055 161.016949,372.881356 C161.016949,368.200657 164.405856,364.40678 168.586922,364.40678 L168.586922,364.40678 Z M136.202796,364.40678 C140.546813,364.40678 144.068846,368.200657 144.067797,372.881356 C144.067797,377.562055 140.546813,381.355932 136.202796,381.355932 L136.202796,381.355932 L126.509068,381.355932 C122.165052,381.355932 118.644068,377.562055 118.644068,372.881356 C118.644068,368.200657 122.165052,364.40678 126.509068,364.40678 L126.509068,364.40678 Z M475.194969,152.542373 C488.871716,152.542373 500,163.557213 500,177.096716 L500,177.096716 L500,232.505324 C500,236.551432 496.686012,239.830951 492.598595,239.830951 C488.51019,239.830951 485.197189,236.551432 485.197189,232.505324 L485.197189,232.505324 L485.197189,177.096716 C485.197189,171.636719 480.710711,167.194604 475.194969,167.194604 L475.194969,167.194604 L262.092178,167.194604 C256.576437,167.194604 252.089959,171.636719 252.089959,177.096716 L252.089959,177.096716 L252.089959,274.088914 C252.089959,279.548911 256.576437,283.990048 262.092178,283.990048 L262.092178,283.990048 L385.713331,283.990048 C391.942246,283.990048 397.986447,286.189105 402.733699,290.184368 L402.733699,290.184368 L450.923338,330.730519 L450.923338,296.876384 C450.923338,289.770761 456.76307,283.990048 463.941238,283.990048 L463.941238,283.990048 L475.196945,283.990048 C480.712686,283.990048 485.199165,279.548911 485.199165,274.088914 L485.199165,274.088914 L485.199165,266.15021 C485.199165,262.104102 488.512165,258.824584 492.599582,258.824584 C496.686999,258.824584 500,262.104102 500,266.15021 L500,266.15021 L500,274.088914 C500,287.627438 488.872704,298.642279 475.195957,298.642279 L475.195957,298.642279 L465.724173,298.642279 L465.724173,334.549779 C465.724173,339.63137 462.82999,344.114552 458.17065,346.246141 C456.395617,347.058687 454.522794,347.457627 452.669726,347.457627 C449.657997,347.457627 446.697632,346.405522 444.275606,344.367801 L444.275606,344.367801 L393.146345,301.34881 C391.072015,299.602472 388.43169,298.642279 385.711355,298.642279 L385.711355,298.642279 L262.092178,298.642279 C248.415432,298.642279 237.288136,287.627438 237.288136,274.088914 L237.288136,274.088914 L237.288136,177.096716 C237.288136,163.557213 248.415432,152.542373 262.092178,152.542373 L262.092178,152.542373 Z M212.76901,330.508475 C216.949066,330.508475 220.338983,334.302352 220.338983,338.983051 C220.338983,343.66375 216.950076,347.457627 212.76901,347.457627 L212.76901,347.457627 L168.586922,347.457627 C164.405856,347.457627 161.016949,343.66375 161.016949,338.983051 C161.016949,334.302352 164.405856,330.508475 168.586922,330.508475 L168.586922,330.508475 Z M136.202796,330.508475 C140.546813,330.508475 144.067797,334.302352 144.067797,338.983051 C144.067797,343.66375 140.546813,347.457627 136.202796,347.457627 L136.202796,347.457627 L126.509068,347.457627 C122.165052,347.457627 118.644068,343.66375 118.644068,338.983051 C118.644068,334.302352 122.165052,330.508475 126.509068,330.508475 L126.509068,330.508475 Z M421.630163,178.040184 C429.996077,177.463445 437.944078,180.269101 444.040637,185.934661 C450.05304,191.520277 453.502497,199.416656 453.502497,207.599502 C453.502497,216.905372 449.022124,225.788681 441.515944,231.360021 C440.921111,231.801616 440.566315,232.542051 440.566315,233.341491 C440.566315,234.221828 441.013875,235.026027 441.761719,235.495223 C451.696003,241.71468 457.627119,252.391972 457.627119,264.056191 C457.627119,267.994388 454.419611,271.186441 450.462346,271.186441 L450.462346,271.186441 L396.995281,271.186441 C393.038016,271.186441 389.830508,267.994388 389.830508,264.056191 C389.830508,252.391972 395.761624,241.71468 405.695908,235.495223 C406.443753,235.026027 406.890355,234.220876 406.889399,233.341491 C406.889399,232.534437 406.505914,231.784486 405.8384,231.283883 C397.587245,225.104398 393.186246,215.288408 394.064151,205.026065 C395.293026,190.636133 407.143781,179.034727 421.630163,178.040184 Z M373.918207,245.762712 C378.02623,245.762712 381.355932,249.556589 381.355932,254.237288 C381.355932,258.917987 378.02623,262.711864 373.918207,262.711864 L373.918207,262.711864 L287.098743,262.711864 C282.99072,262.711864 279.661017,258.917987 279.661017,254.237288 C279.661017,249.556589 282.99072,245.762712 287.098743,245.762712 L287.098743,245.762712 Z M434.264146,196.359748 C431.101586,193.422755 426.9521,191.962824 422.618044,192.267373 C415.116646,192.782251 408.978965,198.786621 408.34301,206.233791 C407.886844,211.575768 410.1715,216.678864 414.454871,219.888047 C418.691382,223.060114 421.220856,228.088024 421.2199,233.339588 C421.2199,239.151712 418.269643,244.469896 413.32641,247.564873 C409.708639,249.831858 407.008939,253.11813 405.508469,256.925942 L405.508469,256.925942 L441.949159,256.925942 C440.448688,253.11813 437.749944,249.830906 434.131218,247.564873 C429.18894,244.468944 426.237727,239.151712 426.237727,233.34054 C426.237727,228.061376 428.747119,223.04679 432.950159,219.928019 C436.904554,216.991027 439.173909,212.497028 439.173909,207.598551 C439.173909,203.29204 437.429576,199.300547 434.264146,196.359748 Z M373.918207,211.864407 C378.02623,211.864407 381.355932,215.658284 381.355932,220.338983 C381.355932,225.019682 378.02623,228.813559 373.918207,228.813559 L373.918207,228.813559 L287.098743,228.813559 C282.99072,228.813559 279.661017,225.019682 279.661017,220.338983 C279.661017,215.658284 282.99072,211.864407 287.098743,211.864407 L287.098743,211.864407 Z M237.906927,0 C251.58461,0 262.711864,11.0148958 262.711864,24.5544663 L262.711864,24.5544663 L262.711864,121.546173 C262.711864,135.084765 251.58461,146.099661 237.906927,146.099661 L237.906927,146.099661 L204.409594,146.099661 C200.322192,146.099661 197.009204,142.820126 197.009204,138.773998 C197.009204,134.727869 200.322192,131.448334 204.409594,131.448334 L204.409594,131.448334 L237.906927,131.448334 C243.422647,131.448334 247.910097,127.007175 247.910097,121.54715 L247.910097,121.54715 L247.910097,24.5544663 C247.910097,19.0944416 243.422647,14.6523048 237.906927,14.6523048 L237.906927,14.6523048 L24.8049373,14.6523048 C19.2892169,14.6523048 14.8017675,19.0944416 14.8017675,24.5544663 L14.8017675,24.5544663 L14.8017675,121.54715 C14.8017675,127.007175 19.2892169,131.448334 24.8049373,131.448334 L24.8049373,131.448334 L36.0606023,131.448334 C43.2377556,131.448334 49.0774653,137.229077 49.0774653,144.334735 L49.0774653,144.334735 L49.0774653,178.190017 L97.2669233,137.641707 C102.014157,133.64838 108.059323,131.448334 114.288215,131.448334 L114.288215,131.448334 L170.180321,131.448334 C174.267723,131.448334 177.580711,134.727869 177.580711,138.773998 C177.580711,142.820126 174.267723,146.099661 170.180321,146.099661 L170.180321,146.099661 L114.288215,146.099661 C111.566903,146.099661 108.926587,147.060837 106.853253,148.806206 L106.853253,148.806206 L55.7241849,191.82639 C53.3031551,193.863143 50.340826,194.915254 47.3300962,194.915254 C45.4770354,194.915254 43.6042192,194.516313 41.8291924,193.703762 C37.1698706,191.571185 34.2756978,187.089936 34.2756978,182.008319 L34.2756978,182.008319 L34.2756978,146.100639 L24.8049373,146.100639 C11.1272546,146.100639 0,135.085743 0,121.54715 L0,121.54715 L0,24.5544663 C0,11.0148958 11.1272546,0 24.8049373,0 L24.8049373,0 Z M323.161902,177.966102 C327.219579,177.966102 330.508475,181.759979 330.508475,186.440678 C330.508475,191.121377 327.219579,194.915254 323.161902,194.915254 L323.161902,194.915254 L287.007589,194.915254 C282.948932,194.915254 279.660037,191.121377 279.661017,186.440678 C279.661017,181.759979 282.949912,177.966102 287.007589,177.966102 L287.007589,177.966102 Z M373.076139,177.966102 C377.649255,177.966102 381.355932,181.759979 381.355932,186.440678 C381.355932,191.121377 377.649255,194.915254 373.076139,194.915254 L373.076139,194.915254 L355.73742,194.915254 C351.164304,194.915254 347.457627,191.121377 347.457627,186.440678 C347.457627,181.759979 351.164304,177.966102 355.73742,177.966102 L355.73742,177.966102 Z M55.9574503,33.3920658 C62.0559224,27.7283947 70.0144429,24.9217797 78.3679247,25.4975688 C92.85335,26.4921136 104.705062,38.0945021 105.934893,52.4835196 C106.811841,62.7468415 102.410843,72.5628562 94.1606436,78.7404548 C93.4921738,79.2420099 93.1086883,79.9910116 93.1086883,80.7980681 C93.1086883,81.6784068 93.5552911,82.4835599 94.3040921,82.9527566 C104.238376,89.1722307 110.169492,99.8495498 110.169492,111.5138 C110.169492,115.452007 106.961984,118.644068 103.004719,118.644068 L103.004719,118.644068 L49.5376537,118.644068 C45.5803889,118.644068 42.3728814,115.452007 42.3728814,111.5138 C42.3728814,99.8495498 48.3039969,89.1722307 58.2382808,82.9527566 C58.9870817,82.4835599 59.4336846,81.6784068 59.431772,80.7990198 C59.431772,79.9995771 59.0769761,79.2591409 58.4821432,78.8175439 C50.9769199,73.2461894 46.49559,64.3638096 46.49559,55.0569638 C46.49559,46.8740964 49.944091,38.977696 55.9574503,33.3920658 Z M212.901257,93.220339 C217.00928,93.220339 220.338983,97.0142163 220.338983,101.694915 C220.338983,106.375614 217.00928,110.169492 212.901257,110.169492 L212.901257,110.169492 L126.081793,110.169492 C121.97377,110.169492 118.644068,106.375614 118.644068,101.694915 C118.644068,97.0142163 121.97377,93.220339 126.081793,93.220339 L126.081793,93.220339 Z M77.3838683,39.7247943 C73.0335547,39.4164378 68.8993702,40.8792276 65.7377662,43.8171797 C62.5713806,46.7570352 60.8280036,50.7485385 60.8280036,55.0560121 C60.8280036,59.955454 63.0964019,64.4494642 67.0517541,67.3855128 C71.2547939,70.5052429 73.7641856,75.5188909 73.7632292,80.7990198 C73.7632292,86.6102071 70.8129726,91.927453 65.8697388,95.0233902 C62.2510123,97.2894296 59.5522687,100.576662 58.0508415,104.384484 L58.0508415,104.384484 L94.4944004,104.384484 C92.9929732,100.576662 90.2942295,97.2894296 86.6755031,95.0233902 C81.7322692,91.9284047 78.7810563,86.6102071 78.7810563,80.7990198 C78.7810563,75.5474425 81.3105308,70.5176153 85.5470419,67.3455407 C89.8294565,64.1373009 92.1150686,59.0332397 91.6579462,53.6922009 C91.0219914,46.2440594 84.8852663,40.2396735 77.3838683,39.7247943 Z M212.876942,59.3220339 C216.997399,59.3220339 220.338983,63.1159112 220.338983,67.7966102 C220.338983,72.4773091 216.998395,76.2711864 212.876942,76.2711864 L212.876942,76.2711864 L185.428143,76.2711864 C181.30669,76.2711864 177.966102,72.4773091 177.966102,67.7966102 C177.966102,63.1159112 181.30669,59.3220339 185.428143,59.3220339 L185.428143,59.3220339 Z M153.084475,59.3220339 C157.465759,59.3220339 161.016949,63.1159112 161.016949,67.7966102 C161.016949,72.4773091 157.465759,76.2711864 153.084475,76.2711864 L153.084475,76.2711864 L126.576542,76.2711864 C122.195258,76.2711864 118.644068,72.4773091 118.644068,67.7966102 C118.644068,63.1159112 122.195258,59.3220339 126.576542,59.3220339 L126.576542,59.3220339 Z M212.901257,25.4237288 C217.008288,25.4237288 220.338983,29.2176061 220.338983,33.8983051 C220.338983,38.579004 217.00928,42.3728814 212.901257,42.3728814 L212.901257,42.3728814 L126.081793,42.3728814 C121.97377,42.3728814 118.644068,38.579004 118.644068,33.8983051 C118.644068,29.2176061 121.97377,25.4237288 126.081793,25.4237288 L126.081793,25.4237288 Z" id="Combined-Shape" fill="#FFFFFF"/>
        </svg>