<svg xmlns="http://www.w3.org/2000/svg" width="75px" height="75px" viewBox="0 0 75 75">
<g fill="none" fillRule="evenodd">
<path
        fill="#FFF"
        d="M5.662 25.75a4.419 4.419 0 013.744-.873 4.415 4.415 0 013.481 4.338v15.996a4.673 4.673 0 015.922-.605l4.644 3.123a19.549 19.549 0 018.268 12.274l2.175 10.367a1.327 1.327 0 01-2.599.545L29.123 60.55a16.912 16.912 0 00-7.152-10.616l-4.643-3.123a2.008 2.008 0 00-2.614.333 2.244 2.244 0 00-.044 2.937l.023.024 3.044 3.241c1.775 1.885 3.329 3.541 3.353 3.566a1.328 1.328 0 11-1.935 1.817l-2.05-2.18-.014-.013-1.366-1.455c-.976-1.037-2.013-2.139-2.894-3.072a4.497 4.497 0 01-.206-.235 9.274 9.274 0 01-2.393-6.227v-16.33c0-.846-.576-1.565-1.401-1.747a1.78 1.78 0 00-1.507.35c-.426.342-.67.851-.67 1.396V49.8c0 2.142.656 4.2 1.896 5.946l2.367 3.335a1.327 1.327 0 11-2.165 1.537l-2.367-3.335A12.87 12.87 0 014 49.8V29.215c0-1.355.605-2.618 1.662-3.466zm60.9-.873a4.422 4.422 0 013.744.872 4.422 4.422 0 011.663 3.466v20.584a12.86 12.86 0 01-2.386 7.483l-10.03 14.129a1.327 1.327 0 11-2.165-1.537l10.03-14.129a10.213 10.213 0 001.896-5.946V29.215a1.784 1.784 0 00-2.177-1.746c-.825.182-1.4.901-1.4 1.746v16.331c0 2.311-.85 4.515-2.393 6.227a5.09 5.09 0 01-.206.235c-.882.933-6.307 6.702-6.324 6.72a1.327 1.327 0 11-1.936-1.817c.025-.025 6.397-6.807 6.397-6.807.01-.008.016-.018.025-.028a2.24 2.24 0 00-.046-2.932 2.005 2.005 0 00-2.613-.333l-4.645 3.122a16.906 16.906 0 00-7.15 10.616L44.67 70.915a1.326 1.326 0 11-2.598-.545l2.175-10.367a19.556 19.556 0 018.268-12.274l4.645-3.122a4.668 4.668 0 015.92.605V29.215c0-2.1 1.432-3.884 3.482-4.338zM14.73 66.744a1.33 1.33 0 011.852.315l1.998 2.815a1.328 1.328 0 11-2.165 1.537l-1.998-2.815a1.329 1.329 0 01.313-1.852zm-2.755-3.876a1.325 1.325 0 011.85.31l.01.011a1.33 1.33 0 01-1.08 2.099c-.415 0-.823-.194-1.082-.557l-.008-.012a1.325 1.325 0 01.31-1.85zm26.01-19.617a1.33 1.33 0 011.327 1.328c0 .349-.143.69-.39.939a1.338 1.338 0 01-.938.389 1.334 1.334 0 01-1.328-1.328 1.33 1.33 0 011.328-1.328zM38 11.169c3.244 0 6.026 2.001 7.182 4.833a5.906 5.906 0 013.855-1.426 5.948 5.948 0 015.941 5.942v3.07a5.941 5.941 0 01-2.54 4.868v.424l2.36.563a6.219 6.219 0 014.79 6.069v2.479c0 .734-.594 1.328-1.328 1.328h-6.117c.01.162.016.325.016.49v4.769c0 .733-.594 1.328-1.328 1.328H42.72a1.329 1.329 0 010-2.655h1.504v-2.743a1.328 1.328 0 112.655 0v2.743h2.626v-3.442a5.495 5.495 0 00-4.233-5.363l-3.63-.868-2.437 5.539a1.326 1.326 0 01-2.43 0l-2.439-5.547-3.642.873a5.497 5.497 0 00-4.229 5.362v3.446h2.625v-2.743a1.328 1.328 0 112.656 0v2.743h1.372a1.327 1.327 0 010 2.655h-7.98a1.329 1.329 0 01-1.328-1.328v-4.773c0-.163.006-.326.016-.487h-6.1a1.327 1.327 0 01-1.328-1.327v-2.479a6.22 6.22 0 014.79-6.069l2.361-.564v-.423a5.939 5.939 0 01-2.542-4.868v-3.071a5.95 5.95 0 015.942-5.942c1.476 0 2.828.543 3.868 1.437 1.153-2.837 3.938-4.843 7.184-4.843zM49.782 29.48a5.754 5.754 0 01-1.485.001v.439a1.328 1.328 0 01-1.085 1.307l-1.99.477.666.159a8.145 8.145 0 015.646 4.801h5.4v-1.152a3.576 3.576 0 00-2.753-3.487l-3.38-.807a1.327 1.327 0 01-1.019-1.291zm-23.578 0v.447c0 .614-.422 1.148-1.02 1.291l-3.38.807a3.575 3.575 0 00-2.752 3.487v1.152h5.381a8.141 8.141 0 015.641-4.803l.672-.161-1.98-.474a1.328 1.328 0 01-1.08-1.307l.002-.059v-.379a5.818 5.818 0 01-1.484-.001zm10.228 1.314v.947l1.558 3.543 1.553-3.533v-.952a7.764 7.764 0 01-3.111-.005zM44.5 27.42a7.796 7.796 0 01-2.302 2.295v.09a6.237 6.237 0 011.072-.364l2.372-.568v-.413a6.069 6.069 0 01-1.142-1.04zm-13.006-.012a5.999 5.999 0 01-1.152 1.052v.413l2.372.568c.366.088.722.208 1.063.359v-.103a7.807 7.807 0 01-2.283-2.289zm8.863-7.79a8.36 8.36 0 01-5.64 2.18h-1.815v1.401c0 2.813 2.287 5.1 5.098 5.1a5.105 5.105 0 005.095-4.906v-2.167zm-10.122 2.397c-1.49.618-3.095.94-4.72.94h-1.853v.633a3.29 3.29 0 003.287 3.286 3.291 3.291 0 003.286-3.287zm15.52.003v1.181c0 .066-.004.13-.005.194v.195a3.29 3.29 0 003.287 3.286 3.29 3.29 0 003.286-3.286v-.633H50.47a12.34 12.34 0 01-4.715-.937zm3.282-4.788c-1.35 0-2.513.819-3.018 1.985A9.67 9.67 0 0050.47 20.3h1.846a3.291 3.291 0 00-3.279-3.07zm-22.088 0a3.292 3.292 0 00-3.28 3.07h1.846a9.67 9.67 0 004.451-1.085 3.294 3.294 0 00-3.017-1.985zM38 13.824a5.105 5.105 0 00-5.098 5.099v.22h1.814c1.7 0 3.303-.749 4.395-2.051a1.327 1.327 0 011.69-.292l2.235 1.312A5.108 5.108 0 0038 13.824zm6.234-6.85a1.327 1.327 0 111.878 1.877l-1.381 1.383a1.327 1.327 0 11-1.879-1.876zm-14.412-.035a1.329 1.329 0 011.878 0l1.393 1.391a1.326 1.326 0 01-.938 2.267c-.34 0-.679-.129-.939-.388l-1.393-1.392a1.329 1.329 0 010-1.878zM37.982 4c.734 0 1.329.595 1.329 1.327v1.986a1.329 1.329 0 11-2.655 0V5.327c0-.732.595-1.327 1.327-1.327z"
/>
<path d="M0 0h75v75H0z" />
</g>
        </svg>