<svg xmlns="http://www.w3.org/2000/svg" width="75px" height="75px" viewBox="0 0 75 75">
<g fill="none" fill-rule="evenodd">
<path
        fill="#FFF"
        d="M49.543 6c11.127 0 20.178 9.052 20.178 20.179 0 11.126-9.051 20.177-20.178 20.177-1.147 0-2.291-.097-3.422-.291.157 1.038.235 2.086.235 3.136v.342c0 11.127-9.052 20.179-20.177 20.179C15.052 69.722 6 60.67 6 49.543c0-11.127 9.052-20.179 20.179-20.179a20.41 20.41 0 013.42.292 21.096 21.096 0 01-.235-3.135v-.342C29.364 15.052 38.416 6 49.543 6zm0 2.124c-9.955 0-18.055 8.099-18.055 18.055v.342a18.502 18.502 0 005.455 13.169l.242.242a13.097 13.097 0 013.862 9.322v.289a14.86 14.86 0 01-.973 5.284c-2.921 7.678-11.513 11.533-19.19 8.612-7.677-2.921-11.533-11.513-8.612-19.19 2.921-7.678 11.513-11.533 19.191-8.612a20.503 20.503 0 01-1.395-3.728 18.23 18.23 0 00-3.889-.421c-9.957 0-18.055 8.1-18.055 18.055s8.098 18.055 18.055 18.055c9.955 0 18.053-8.1 18.053-18.055v-.342a18.5 18.5 0 00-5.454-13.169l-.242-.242a13.094 13.094 0 01-3.861-9.323v-.288c0-1.807.33-3.597.971-5.285 2.922-7.677 11.514-11.533 19.191-8.612 7.677 2.921 11.533 11.513 8.612 19.191-2.922 7.676-11.514 11.533-19.19 8.611a20.469 20.469 0 011.393 3.728 18.12 18.12 0 003.891.42c9.955 0 18.054-8.098 18.054-18.053 0-9.956-8.099-18.055-18.054-18.055zM27.24 36.843v2.08h-2.124v-2.08a12.632 12.632 0 00-4.367 1.172l1.039 1.8-1.84 1.062-1.037-1.797a12.851 12.851 0 00-3.196 3.195l1.797 1.039-1.062 1.838-1.8-1.039a12.65 12.65 0 00-1.172 4.368h2.079v2.125h-2.079a12.65 12.65 0 001.172 4.367l1.8-1.039 1.062 1.839-1.797 1.038a12.851 12.851 0 003.196 3.195l1.037-1.796 1.84 1.062-1.039 1.799a12.632 12.632 0 004.367 1.172v-2.08h2.124v2.08a12.632 12.632 0 004.367-1.172l-1.039-1.799 1.84-1.062 1.037 1.796a12.851 12.851 0 003.196-3.195l-1.796-1.038 1.062-1.839 1.799 1.039a12.65 12.65 0 001.172-4.367h-2.079v-2.125h2.093a10.94 10.94 0 00-1.222-4.346l-1.763 1.017-1.062-1.838 1.66-.959c-.257-.323-.532-.63-.822-.921l-.242-.243a21.042 21.042 0 01-1.677-1.89c-.104-.077-.21-.152-.316-.225l-1.04 1.801-1.84-1.062 1.043-1.806a12.563 12.563 0 00-4.371-1.166zm0 4.204v5.494a3.183 3.183 0 011.812 4.376 3.184 3.184 0 01-4.247 1.5l-2.125 2.126-1.5-1.502 2.123-2.124a3.184 3.184 0 011.814-4.376v-5.494h2.123zm-1.061 7.435a1.062 1.062 0 100 2.124 1.062 1.062 0 00-.001-2.124zm24.426-35.003v2.079h-2.124v-2.079a12.648 12.648 0 00-4.368 1.171l1.039 1.8-1.839 1.062-1.038-1.797a12.851 12.851 0 00-3.195 3.196l1.797 1.037-1.063 1.84-1.8-1.039a12.659 12.659 0 00-1.171 4.367h2.08v2.124h-2.095a10.95 10.95 0 001.223 4.347l1.763-1.019 1.063 1.84-1.661.959c.256.322.531.629.822.921l.242.242a21.18 21.18 0 011.677 1.89c.104.077.21.151.316.226l1.04-1.801 1.839 1.062-1.042 1.806a12.607 12.607 0 004.371 1.166v-2.08h2.124v2.079a12.644 12.644 0 004.367-1.172l-1.039-1.799 1.839-1.062 1.038 1.797a12.893 12.893 0 003.196-3.197l-1.797-1.037 1.062-1.84 1.8 1.039a12.654 12.654 0 001.172-4.367h-2.08v-2.124h2.08a12.66 12.66 0 00-1.172-4.367l-1.8 1.039-1.061-1.84 1.796-1.037a12.872 12.872 0 00-3.196-3.196l-1.038 1.797-1.839-1.062 1.039-1.8a12.643 12.643 0 00-4.367-1.171zm0 4.202v5.494a3.184 3.184 0 011.813 4.377 3.186 3.186 0 01-4.248 1.501l-2.124 2.125-1.502-1.502 2.124-2.125a3.185 3.185 0 011.813-4.376v-5.494h2.124zm-1.062 7.435a1.062 1.062 0 100 2.124 1.062 1.062 0 000-2.124z"
/>
<path d="M0 0h75v75H0z" />
</g></svg>