<svg xmlns="http://www.w3.org/2000/svg" fill="#fff" height="50" viewBox="0 0 512 512" width="50">
<path d="M206.944336,281.93457 C221.775391,281.93457 233.839844,294 233.839844,308.830078 C233.839844,315.918945 231.078125,322.37207 226.580078,327.181641 C235.683594,333.447266 241.667969,343.935547 241.667969,355.799805 L241.667969,355.799805 L241.667969,375.370117 C241.667969,379.415039 238.388672,382.694336 234.34375,382.694336 C230.298828,382.694336 227.019531,379.415039 227.019531,375.370117 L227.019531,375.370117 L227.019531,355.799805 C227.019531,344.730469 218.013672,335.724609 206.944336,335.724609 C195.875977,335.724609 186.870117,344.730469 186.870117,355.799805 L186.870117,355.799805 L186.870117,375.370117 C186.870117,379.415039 183.59082,382.694336 179.545898,382.694336 C175.500977,382.694336 172.22168,379.415039 172.22168,375.370117 L172.22168,375.370117 L172.22168,355.799805 C172.22168,343.936523 178.205078,333.448242 187.30957,327.181641 C182.811523,322.37207 180.049805,315.918945 180.049805,308.830078 C180.049805,293.999023 192.114258,281.93457 206.944336,281.93457 Z M120.833008,281.93457 C135.664063,281.93457 147.728516,294 147.728516,308.830078 C147.728516,315.918945 144.966797,322.37207 140.46875,327.181641 C149.573242,333.447266 155.557617,343.935547 155.556641,355.799805 L155.556641,355.799805 L155.556641,375.370117 C155.556641,379.415039 152.277344,382.694336 148.232422,382.694336 C144.1875,382.694336 140.908203,379.415039 140.908203,375.370117 L140.908203,375.370117 L140.908203,355.799805 C140.908203,344.730469 131.902344,335.724609 120.833008,335.724609 C109.763672,335.724609 100.757813,344.730469 100.757813,355.799805 L100.757813,355.799805 L100.757813,375.370117 C100.757813,379.415039 97.4785156,382.694336 93.4335938,382.694336 C89.3886719,382.694336 86.109375,379.415039 86.109375,375.370117 L86.109375,375.370117 L86.109375,355.799805 C86.109375,343.935547 92.0927734,333.447266 101.197266,327.181641 C96.6992188,322.37207 93.9375,315.918945 93.9375,308.830078 C93.9375,293.999023 106.001953,281.93457 120.833008,281.93457 Z M34.7236328,281.93457 C49.5537109,281.93457 61.6181641,294 61.6181641,308.830078 C61.6181641,315.918945 58.8564453,322.37207 54.3583984,327.181641 C63.4628906,333.447266 69.4462891,343.935547 69.4462891,355.799805 L69.4462891,355.799805 L69.4462891,375.370117 C69.4462891,379.415039 66.1669922,382.694336 62.1220703,382.694336 C58.0771484,382.694336 54.7978516,379.415039 54.7978516,375.370117 L54.7978516,375.370117 L54.7978516,355.799805 C54.7978516,344.730469 45.7919922,335.724609 34.7236328,335.724609 C23.6542969,335.724609 14.6484375,344.730469 14.6484375,355.799805 L14.6484375,355.799805 L14.6484375,375.370117 C14.6484375,379.415039 11.3691406,382.694336 7.32421875,382.694336 C3.27929688,382.694336 1.16551213e-12,379.415039 1.16551213e-12,375.370117 L1.16551213e-12,375.370117 L1.16551213e-12,355.799805 C1.16551213e-12,343.935547 5.98339844,333.447266 15.0878906,327.181641 C10.5898438,322.37207 7.828125,315.918945 7.828125,308.830078 C7.828125,293.999023 19.8935547,281.93457 34.7236328,281.93457 Z M465.276367,281.93457 C480.107422,281.93457 492.171875,294 492.171875,308.830078 C492.171875,315.918945 489.410156,322.37207 484.912109,327.181641 C494.016602,333.447266 500,343.935547 500,355.799805 L500,355.799805 L500,375.370117 C500,379.415039 496.720703,382.694336 492.675781,382.694336 C488.630859,382.694336 485.351562,379.415039 485.351562,375.370117 L485.351562,375.370117 L485.351562,355.799805 C485.351562,344.730469 476.345703,335.724609 465.276367,335.724609 C454.208008,335.724609 445.202148,344.730469 445.202148,355.799805 L445.202148,355.799805 L445.202148,375.370117 C445.202148,379.415039 441.922852,382.694336 437.87793,382.694336 C433.833008,382.694336 430.553711,379.415039 430.553711,375.370117 L430.553711,375.370117 L430.553711,355.799805 C430.553711,343.936523 436.537109,333.448242 445.641602,327.181641 C441.143555,322.37207 438.381836,315.918945 438.381836,308.830078 C438.381836,293.999023 450.446289,281.93457 465.276367,281.93457 Z M379.166016,281.93457 C393.99707,281.93457 406.061523,294 406.061523,308.830078 C406.061523,315.918945 403.299805,322.37207 398.801758,327.181641 C407.905273,333.447266 413.889648,343.935547 413.889648,355.799805 L413.889648,355.799805 L413.889648,375.370117 C413.889648,379.415039 410.610352,382.694336 406.56543,382.694336 C402.520508,382.694336 399.241211,379.415039 399.241211,375.370117 L399.241211,375.370117 L399.241211,355.799805 C399.241211,344.730469 390.235352,335.724609 379.166016,335.724609 C368.09668,335.724609 359.09082,344.730469 359.09082,355.799805 L359.09082,355.799805 L359.09082,375.370117 C359.09082,379.415039 355.811523,382.694336 351.766602,382.694336 C347.72168,382.694336 344.442383,379.415039 344.442383,375.370117 L344.442383,375.370117 L344.442383,355.799805 C344.442383,343.935547 350.425781,333.447266 359.530273,327.181641 C355.032227,322.37207 352.270508,315.918945 352.270508,308.830078 C352.270508,293.999023 364.334961,281.93457 379.166016,281.93457 Z M293.055664,281.93457 C307.885742,281.93457 319.950195,294 319.950195,308.830078 C319.950195,315.918945 317.188477,322.37207 312.69043,327.181641 C321.794922,333.447266 327.77832,343.935547 327.77832,355.799805 L327.77832,355.799805 L327.77832,375.370117 C327.77832,379.415039 324.499023,382.694336 320.454102,382.694336 C316.40918,382.694336 313.129883,379.415039 313.129883,375.370117 L313.129883,375.370117 L313.129883,355.799805 C313.129883,344.730469 304.124023,335.724609 293.055664,335.724609 C281.986328,335.724609 272.980469,344.730469 272.980469,355.799805 L272.980469,355.799805 L272.980469,375.370117 C272.980469,379.415039 269.701172,382.694336 265.65625,382.694336 C261.611328,382.694336 258.332031,379.415039 258.332031,375.370117 L258.332031,375.370117 L258.332031,355.799805 C258.332031,343.935547 264.31543,333.447266 273.419922,327.181641 C268.921875,322.37207 266.160156,315.918945 266.160156,308.830078 C266.160156,293.999023 278.225586,281.93457 293.055664,281.93457 Z M206.944336,296.583008 C200.191406,296.583008 194.698242,302.077148 194.698242,308.830078 C194.698242,315.583008 200.192383,321.076172 206.944336,321.076172 C213.698242,321.076172 219.191406,315.583008 219.191406,308.830078 C219.191406,302.076172 213.697266,296.583008 206.944336,296.583008 Z M120.833984,296.583008 C114.080078,296.583008 108.586914,302.077148 108.586914,308.830078 C108.586914,315.583008 114.080078,321.076172 120.833984,321.076172 C127.587891,321.076172 133.081055,315.583008 133.081055,308.830078 C133.081055,302.076172 127.587891,296.583008 120.833984,296.583008 Z M34.7236328,296.583008 C27.9697266,296.583008 22.4765625,302.077148 22.4765625,308.830078 C22.4765625,315.583008 27.9707031,321.076172 34.7236328,321.076172 C41.4765625,321.076172 46.9697266,315.583008 46.9697266,308.830078 C46.9697266,302.076172 41.4765625,296.583008 34.7236328,296.583008 Z M465.276367,296.583008 C458.523437,296.583008 453.030273,302.077148 453.030273,308.830078 C453.030273,315.583008 458.524414,321.076172 465.276367,321.076172 C472.030273,321.076172 477.523437,315.583008 477.523437,308.830078 C477.523437,302.076172 472.029297,296.583008 465.276367,296.583008 Z M379.166992,296.583008 C372.413086,296.583008 366.919922,302.077148 366.919922,308.830078 C366.919922,315.583008 372.413086,321.076172 379.166992,321.076172 C385.920898,321.076172 391.414062,315.583008 391.414062,308.830078 C391.414062,302.076172 385.920898,296.583008 379.166992,296.583008 Z M293.055664,296.583008 C286.301758,296.583008 280.808594,302.077148 280.808594,308.830078 C280.808594,315.583008 286.302734,321.076172 293.055664,321.076172 C299.808594,321.076172 305.301758,315.583008 305.301758,308.830078 C305.301758,302.076172 299.808594,296.583008 293.055664,296.583008 Z M430.049805,0.118164062 C442.720703,0.118164062 453.030273,10.4267578 453.030273,23.0986328 L453.030273,23.0986328 L453.030273,234.964844 L453.53418,234.964844 C461.889648,234.964844 468.686523,241.762695 468.686523,250.118164 L468.686523,250.118164 L468.686523,257.946289 C468.686523,261.991211 465.407227,265.270508 461.362305,265.270508 C457.317383,265.270508 454.038086,261.991211 454.038086,257.946289 L454.038086,257.946289 L454.038086,250.118164 C454.038086,249.838867 453.8125,249.613281 453.53418,249.613281 L453.53418,249.613281 L383.080078,249.613281 C379.035156,249.613281 375.755859,246.334961 375.755859,242.289062 C375.755859,238.244141 379.035156,234.964844 383.080078,234.964844 L383.080078,234.964844 L438.381836,234.964844 L438.381836,23.0986328 C438.381836,18.5039062 434.644531,14.7666016 430.049805,14.7666016 L430.049805,14.7666016 L69.9501953,14.7666016 C65.3564453,14.7666016 61.6181641,18.5039062 61.6181641,23.0986328 L61.6181641,23.0986328 L61.6181641,234.963867 L227.019531,234.963867 L227.019531,132.75293 L200.714844,123.984375 C196.876953,122.705078 194.802734,118.557617 196.082031,114.719727 C197.361328,110.882812 201.509766,108.808594 205.34668,110.087891 L205.34668,110.087891 L234.987305,119.96875 C244.667969,123.196289 255.331055,123.196289 265.012695,119.96875 L265.012695,119.96875 L294.65332,110.088867 C298.490234,108.808594 302.637695,110.883789 303.917969,114.720703 C305.196289,118.557617 303.123047,122.706055 299.285156,123.985352 L299.285156,123.985352 L272.980469,132.753906 L272.980469,234.964844 L351.766602,234.964844 C355.811523,234.964844 359.09082,238.244141 359.09082,242.289062 C359.09082,246.334961 355.811523,249.613281 351.766602,249.613281 L351.766602,249.613281 L46.4648438,249.613281 C46.1865234,249.613281 45.9609375,249.839844 45.9609375,250.118164 L45.9609375,250.118164 L45.9609375,257.944336 C45.9609375,261.990234 42.6816406,265.270508 38.6367188,265.270508 C34.5917969,265.270508 31.3134763,261.989258 31.3134763,257.944336 L31.3134763,257.944336 L31.3134763,250.118164 C31.3134763,241.762695 38.1103516,234.964844 46.4658203,234.964844 L46.4658203,234.964844 L46.9697266,234.964844 L46.9697266,23.0986328 C46.9697266,10.4277344 57.2783203,0.118164062 69.9501953,0.118164062 L69.9501953,0.118164062 Z M258.332031,186.987305 L241.667969,186.987305 L241.667969,234.964844 L258.332031,234.964844 L258.332031,186.987305 Z M258.332031,136.467773 C255.570313,136.836914 252.785156,137.03418 250,137.03418 C247.214844,137.03418 244.430664,136.836914 241.667969,136.467773 L241.667969,136.467773 L241.667969,172.339844 L258.332031,172.339844 Z M250,62.7441406 C262.671875,62.7441406 272.980469,73.0537109 272.980469,85.7246094 C272.980469,98.3955078 262.670898,108.705078 250,108.705078 C237.329102,108.705078 227.019531,98.3964844 227.019531,85.7246094 C227.019531,73.0537109 237.328125,62.7441406 250,62.7441406 Z M250,77.3925781 C245.40625,77.3925781 241.667969,81.1308594 241.667969,85.7246094 C241.667969,90.3183594 245.40625,94.0566406 250,94.0566406 C254.59375,94.0566406 258.332031,90.3193359 258.332031,85.7246094 C258.332031,81.1308594 254.59375,77.3925781 250,77.3925781 Z" id="Combined-Shape"/>
        </svg>