<svg width="32px" height="32px" viewBox="0 0 32 32" version="1.1" xmlns="http://www.w3.org/2000/svg" xmlns:xlink="http://www.w3.org/1999/xlink">
    <g id="Symbols" stroke="none" stroke-width="1" fill="none" fill-rule="evenodd">
        <g id="ion-arrow-down">
            <g id="Icon" transform="translate(4.000000, 5.000000) rotate(-180, 12, 11)" fill="#FFFFFF">
                <path d="M12.01875,-0.25 C12.7984461,-0.25 13.4391987,0.344888083 13.5118834,1.10553999 L13.51875,1.25 L13.518,17.111 L19.9393398,10.6893398 C20.5251263,10.1035534 21.4748737,10.1035534 22.0606602,10.6893398 C22.609835,11.2385146 22.6441584,12.107577 22.1636304,12.6967378 L22.0606602,12.8106602 L13.0606602,21.8106602 C12.5114854,22.359835 11.642423,22.3941584 11.0532622,21.9136304 L10.9393398,21.8106602 L1.93933983,12.8106602 C1.35355339,12.2248737 1.35355339,11.2751263 1.93933983,10.6893398 C2.48851461,10.140165 3.35757702,10.1058416 3.94673776,10.5863696 L4.06066017,10.6893398 L10.518,17.147 L10.51875,1.25 C10.51875,0.421572875 11.1903229,-0.25 12.01875,-0.25 Z" id="Combined-Shape" transform="translate(12.000000, 11.000000) rotate(-90.000000) translate(-12.000000, -11.000000) "/>
            </g>
            <rect id="ViewBox" fill-rule="nonzero" x="0" y="0" width="32" height="32"/>
        </g>
    </g>
</svg>