<svg width="32px" height="32px" viewBox="0 0 32 32" version="1.1" xmlns="http://www.w3.org/2000/svg" xmlns:xlink="http://www.w3.org/1999/xlink">
    <title>C063DD00-137D-4F7D-A3A8-E2412A6D12BE</title>
    <g id="Symbols" stroke="none" stroke-width="1" fill="none" fill-rule="evenodd">
        <g id="ion-close-outline">
            <g id="Icon" transform="translate(8.000000, 8.000000)" fill="#FFFFFF">
                <path d="M1.61289944,0.209704612 L1.70710678,0.292893219 L8,6.585 L14.2928932,0.292893219 C14.6834175,-0.0976310729 15.3165825,-0.0976310729 15.7071068,0.292893219 C16.0675907,0.65337718 16.0953203,1.22060824 15.7902954,1.61289944 L15.7071068,1.70710678 L9.415,8 L15.7071068,14.2928932 C16.0976311,14.6834175 16.0976311,15.3165825 15.7071068,15.7071068 C15.3466228,16.0675907 14.7793918,16.0953203 14.3871006,15.7902954 L14.2928932,15.7071068 L8,9.415 L1.70710678,15.7071068 C1.31658249,16.0976311 0.683417511,16.0976311 0.292893219,15.7071068 C-0.0675907428,15.3466228 -0.0953202783,14.7793918 0.209704612,14.3871006 L0.292893219,14.2928932 L6.585,8 L0.292893219,1.70710678 C-0.0976310729,1.31658249 -0.0976310729,0.683417511 0.292893219,0.292893219 C0.65337718,-0.0675907428 1.22060824,-0.0953202783 1.61289944,0.209704612 Z" id="Combined-Shape"/>
            </g>
            <rect id="ViewBox" fill-rule="nonzero" x="0" y="0" width="32" height="32"/>
        </g>
    </g>
</svg>