<svg xmlns="http://www.w3.org/2000/svg" fill="#fff" height="50" viewBox="0 0 512 512" width="50">
<path d="M266.666667,233.333333 C267.96043,233.333333 269.236479,233.6341 270.39375,234.2125 L270.39375,234.2125 L295.914583,246.972917 C303.252075,250.640906 308.323229,257.675201 309.484375,265.795833 L309.484375,265.795833 L315.559375,308.333333 L340.163542,308.333333 L333.446875,268.0375 C332.700059,263.502808 335.76544,259.219528 340.298609,258.463521 C344.831778,257.707514 349.121264,260.764206 349.886458,265.295833 L349.886458,265.295833 L357.059375,308.333333 L375,308.333333 L375,291.666667 C375,287.064294 378.73096,283.333333 383.333333,283.333333 L383.333333,283.333333 L414.359375,283.333333 L453.101042,260.091667 C455.953125,257.246875 464.286458,250 475,250 C488.800693,250.0155 499.9845,261.199307 500,275 L500,275 L500,358.333333 C500,361.665165 498.012322,364.6758 494.95,365.988542 L494.95,365.988542 L491.666667,367.395833 L491.666667,441.666667 L500,441.666667 L500,458.333333 L0,458.333333 L0,441.666667 L8.33333333,441.666667 L8.33333333,383.785417 L5.696875,382.90625 C2.29431457,381.771476 0,378.586799 0,375 L0,375 L0,275 C0.0154996392,261.199307 11.1993065,250.0155 25,250 C35.7135417,250 44.046875,257.246875 46.8989583,260.091667 L46.8989583,260.091667 L85.640625,283.333333 L116.666667,283.333333 C121.26904,283.333333 125,287.064294 125,291.666667 L125,291.666667 L125,308.333333 L142.940625,308.333333 L150.113542,265.295833 C150.597994,262.354221 152.616959,259.895486 155.408114,258.847999 C158.199269,257.800513 161.337375,258.323862 163.637541,260.22044 C165.937708,262.117018 167.0495,265.097876 166.553125,268.0375 L166.553125,268.0375 L159.836458,308.333333 L184.440625,308.333333 L190.520833,265.8 C191.679605,257.678893 196.748831,250.643017 204.085417,246.972917 L204.085417,246.972917 L229.60625,234.2125 C230.763521,233.6341 232.03957,233.333333 233.333333,233.333333 L233.333333,233.333333 Z M475,266.666667 C470.451042,266.666667 465.592708,271.053125 464.542708,272.225 C463.986516,272.848094 463.338841,273.383024 462.621875,273.811458 L462.621875,273.811458 L420.955208,298.811458 C419.659574,299.58839 418.177391,299.999167 416.666667,300 L416.666667,300 L391.666667,300 L391.666667,308.333333 L423.034375,308.333333 L454.60625,292.545833 C457.189609,291.254022 460.257672,291.392042 462.714604,292.910595 C465.171537,294.429148 466.66693,297.111658 466.666667,300 L466.666667,300 L466.666667,333.333333 C466.66539,336.207059 465.184646,338.877673 462.747917,340.401042 L462.747917,340.401042 L402.795833,377.872917 L438.236458,441.666667 L439.327083,441.666667 L425.247917,385.355208 C424.256192,381.387255 426.290669,377.286086 430.05,375.675 L430.05,375.675 L483.333333,352.840625 L483.333333,275 C483.327022,270.400244 479.599756,266.672978 475,266.666667 Z M200,358.333333 L150,358.333333 L150,441.666667 L223.89375,441.666667 L217.085417,387.203125 L207.323958,377.441667 C202.618789,372.763303 199.981415,366.396619 200,359.761458 L200,359.761458 L200,358.333333 Z M25,266.666667 C20.400244,266.672978 16.6729783,270.400244 16.6666667,275 L16.6666667,275 L16.6666667,368.99375 L60.9697917,383.759375 C63.5782448,384.629776 65.5893876,386.730952 66.3447917,389.375 L66.3447917,389.375 L81.2864583,441.666667 L97.13125,441.666667 L76.278125,372.152083 L37.378125,348.811458 C34.8687937,347.305345 33.3334515,344.593289 33.3333333,341.666667 L33.3333333,341.666667 L33.3333333,300 C33.3330705,297.111658 34.8284634,294.429148 37.2853957,292.910595 C39.742328,291.392042 42.8103909,291.254022 45.39375,292.545833 L45.39375,292.545833 L76.965625,308.333333 L108.333333,308.333333 L108.333333,300 L83.3333333,300 C81.8226086,299.999167 80.3404257,299.58839 79.0447917,298.811458 L79.0447917,298.811458 L37.378125,273.811458 C36.6611591,273.383024 36.0134836,272.848094 35.4572917,272.225 C34.159375,270.8125 29.3625,266.666667 25,266.666667 Z M400,407.159375 L400,441.666667 L419.166667,441.666667 L400,407.159375 Z M350,358.333333 L300,358.333333 L300,359.761458 C300.018585,366.396619 297.381211,372.763303 292.676042,377.441667 L292.676042,377.441667 L282.914583,387.203125 L276.10625,441.666667 L350,441.666667 L350,358.333333 Z M475,374.541667 L443.139583,388.195833 L456.507292,441.666667 L475,441.666667 L475,374.541667 Z M383.333333,358.333333 L366.666667,358.333333 L366.666667,441.666667 L383.333333,441.666667 L383.333333,358.333333 Z M283.333367,358.333333 L216.666633,358.333333 L216.666633,359.761458 C216.660379,361.973979 217.53961,364.097037 219.108333,365.657292 L219.108333,365.657292 L230.891667,377.441667 C232.203084,378.750987 233.039381,380.460978 233.267708,382.3 L233.267708,382.3 L240.689583,441.666667 L259.309375,441.666667 L266.73125,382.3 C266.960406,380.461008 267.796995,378.751169 269.108333,377.441667 L269.108333,377.441667 L280.891667,365.657292 C282.46039,364.097037 283.339621,361.973979 283.333367,359.761458 L283.333367,359.761458 L283.333367,358.333333 Z M133.333333,358.333333 L116.666667,358.333333 L116.666667,441.666667 L133.333333,441.666667 L133.333333,358.333333 Z M25,389.339583 L25,441.666667 L63.9583333,441.666667 L51.5302083,398.18125 L25,389.339583 Z M50,313.484375 L50,336.946875 L87.621875,359.51875 C89.402129,360.587561 90.719623,362.282065 91.3166667,364.270833 L91.3166667,364.270833 L100,393.21875 L100,325 L75,325 C73.7062368,325.000235 72.4301879,324.699233 71.2729167,324.120833 L71.2729167,324.120833 L50,313.484375 Z M450,313.484375 L428.727083,324.120833 C427.569812,324.699233 426.293763,325.000235 425,325 L425,325 L400,325 L400,359.964583 L450,328.714583 L450,313.484375 Z M383.333333,325 L116.666667,325 L116.666667,341.666667 L383.333333,341.666667 L383.333333,325 Z M264.701042,250 L235.298958,250 L211.539583,261.88125 C209.090764,263.106173 207.398321,265.454107 207.010417,268.164583 L207.010417,268.164583 L201.273958,308.333333 L216.666667,308.333333 L216.666667,275 C216.666667,270.397627 220.397627,266.666667 225,266.666667 L225,266.666667 L275,266.666667 C279.602373,266.666667 283.333333,270.397627 283.333333,275 L283.333333,275 L283.333333,308.333333 L298.726042,308.333333 L292.989583,268.160417 C292.600592,265.452618 290.910219,263.106954 288.464583,261.88125 L288.464583,261.88125 L264.701042,250 Z M266.666667,283.333333 L233.333333,283.333333 L233.333333,308.333333 L266.666667,308.333333 L266.666667,283.333333 Z M466.666667,175 C485.076158,175 500,189.923842 500,208.333333 C500,226.742825 485.076158,241.666667 466.666667,241.666667 C448.257175,241.666667 433.333333,226.742825 433.333333,208.333333 C433.354,189.932409 448.265742,175.020666 466.666667,175 Z M33.3333333,175 C51.742825,175 66.6666667,189.923842 66.6666667,208.333333 C66.6666667,226.742825 51.742825,241.666667 33.3333333,241.666667 C14.9324087,241.646 0.0206661856,226.734258 0,208.333333 C0,189.923842 14.9238417,175 33.3333333,175 Z M250,158.333333 C268.409492,158.333333 283.333333,173.257175 283.333333,191.666667 C283.333333,210.076158 268.409492,225 250,225 C231.599075,224.979334 216.687333,210.067591 216.666667,191.666667 C216.666667,173.257175 231.590508,158.333333 250,158.333333 Z M466.666667,191.666667 C457.465729,191.675854 450.009187,199.132396 450,208.333333 C450,217.538079 457.461921,225 466.666667,225 C475.871412,225 483.333333,217.538079 483.333333,208.333333 C483.333333,199.128588 475.871412,191.666667 466.666667,191.666667 Z M33.3333333,191.666667 C24.1323956,191.675854 16.6758538,199.132396 16.6666667,208.333333 C16.6666667,217.538079 24.1285875,225 33.3333333,225 C42.5380792,225 50,217.538079 50,208.333333 C50,199.128588 42.5380792,191.666667 33.3333333,191.666667 Z M250,175 C240.799062,175.009187 233.34252,182.465729 233.333333,191.666667 C233.333333,200.871412 240.795254,208.333333 250,208.333333 C259.204746,208.333333 266.666667,200.871412 266.666667,191.666667 C266.666667,182.461921 259.204746,175 250,175 Z M366.666667,-4.20404452e-13 C380.46736,0.0154996392 391.651167,11.1993065 391.666667,25 L391.666667,25 L391.666667,33.3333333 L425,33.3333333 C438.800693,33.348833 449.9845,44.5326398 450,58.3333333 L450,58.3333333 L450,108.333333 C449.987931,118.924452 443.314479,128.362799 433.333333,131.905208 L433.333333,131.905208 L433.333333,158.333333 C433.333281,161.406692 431.641625,164.230546 428.931867,165.680631 C426.222109,167.130715 422.93417,166.971612 420.377083,165.266667 L420.377083,165.266667 L372.477083,133.333333 L341.666667,133.333333 C329.49421,133.307636 319.111715,124.513751 317.083333,112.511458 L317.083333,112.511458 L287.955208,131.933333 C285.398156,133.637701 282.110622,133.796481 279.401221,132.346471 C276.691819,130.896461 275.000309,128.073009 275,125 L275,125 L275,98.571875 C265.018658,95.0297251 258.345092,85.5912173 258.333333,75 L258.333333,75 L258.333333,25 C258.348833,11.1993065 269.53264,0.0154996392 283.333333,-4.20404452e-13 L283.333333,-4.20404452e-13 Z M141.666667,25 C155.46736,25.0154996 166.651167,36.1993065 166.666667,50 L166.666667,50 L166.666667,100 C166.651167,113.800693 155.46736,124.9845 141.666667,125 L141.666667,125 L102.522917,125 L54.6229167,156.933333 C52.0658299,158.638279 48.7778912,158.797381 46.0681333,157.347297 C43.3583754,155.897213 41.6667192,153.073358 41.6666667,150 L41.6666667,150 L41.6666667,125 C27.8659732,124.9845 16.6821663,113.800693 16.6666667,100 L16.6666667,100 L16.6666667,50 C16.6821663,36.1993065 27.8659732,25.0154996 41.6666667,25 L41.6666667,25 Z M425,50 L391.666667,50 L391.666667,75 C391.651167,88.8006935 380.46736,99.9845004 366.666667,100 L366.666667,100 L335.85625,100 L333.333333,101.682292 L333.333333,108.333333 C333.339645,112.933089 337.066911,116.660355 341.666667,116.666667 L341.666667,116.666667 L375,116.666667 C376.644992,116.667226 378.253069,117.154324 379.621875,118.066667 L379.621875,118.066667 L416.666667,142.761458 L416.666667,125 C416.666667,120.397627 420.397627,116.666667 425,116.666667 C429.599756,116.660355 433.327022,112.933089 433.333333,108.333333 L433.333333,108.333333 L433.333333,58.3333333 C433.327022,53.7335773 429.599756,50.0063117 425,50 L425,50 Z M141.666667,41.6666667 L41.6666667,41.6666667 C37.0669107,41.6729783 33.339645,45.400244 33.3333333,50 L33.3333333,50 L33.3333333,100 C33.339645,104.599756 37.0669107,108.327022 41.6666667,108.333333 L41.6666667,108.333333 L50,108.333333 C54.6023729,108.333333 58.3333333,112.064294 58.3333333,116.666667 L58.3333333,116.666667 L58.3333333,134.428125 L95.3770833,109.733333 C96.7463453,108.821135 98.3547086,108.33406 100,108.333333 L100,108.333333 L141.666667,108.333333 C146.266423,108.327022 149.993688,104.599756 150,100 L150,100 L150,50 C149.993688,45.400244 146.266423,41.6729783 141.666667,41.6666667 L141.666667,41.6666667 Z M366.666667,16.6666667 L283.333333,16.6666667 C278.733577,16.6729783 275.006312,20.400244 275,25 L275,25 L275,75 C275.006312,79.599756 278.733577,83.3270217 283.333333,83.3333333 L283.588106,83.3371536 C288.07261,83.4718159 291.666667,87.1495229 291.666667,91.6666667 L291.666667,91.6666667 L291.666667,109.429167 L316.666667,92.7625 L316.666667,58.3333333 C316.682166,44.5326398 327.865973,33.348833 341.666667,33.3333333 L341.666667,33.3333333 L375,33.3333333 L375,25 C374.993688,20.400244 371.266423,16.6729783 366.666667,16.6666667 L366.666667,16.6666667 Z M375,50 L341.666667,50 C337.066911,50.0063117 333.339645,53.7335773 333.333333,58.3333333 L333.333333,58.3333333 L333.333333,83.3333333 L366.666667,83.3333333 C371.266423,83.3270217 374.993688,79.599756 375,75 L375,75 L375,50 Z M66.6666667,66.6666667 L66.6666667,83.3333333 L50,83.3333333 L50,66.6666667 L66.6666667,66.6666667 Z M100,66.6666667 L100,83.3333333 L83.3333333,83.3333333 L83.3333333,66.6666667 L100,66.6666667 Z M133.333333,66.6666667 L133.333333,83.3333333 L116.666667,83.3333333 L116.666667,66.6666667 L133.333333,66.6666667 Z" id="Combined-Shape"/>
        </svg>