<svg version="1.1" xmlns="http://www.w3.org/2000/svg" fill="#fff" height="50" viewBox="0 0 512 512" width="50">
<path d="M250,0 C270.357422,0 286.918945,16.5615234 286.918945,36.9189453 C286.918945,54.7685547 274.18457,69.6982422 257.324219,73.1054687 L257.324219,73.1054687 L257.324219,94.8808594 C294.631836,96.6210937 328.541992,111.583008 354.458984,135.182617 L354.458984,135.182617 L393.681641,95.9609375 C388.058594,88.2402344 384.730469,78.7470703 384.730469,68.4863281 C384.730469,42.6904297 405.716797,21.703125 431.513672,21.703125 C457.310547,21.703125 478.296875,42.6894531 478.296875,68.4863281 C478.296875,94.2832031 457.310547,115.270508 431.513672,115.270508 C421.25293,115.270508 411.759766,111.941406 404.039062,106.319336 L404.039062,106.319336 L364.816406,145.541016 C388.416992,171.458008 403.37793,205.368164 405.119141,242.675781 L405.119141,242.675781 L426.894531,242.675781 C430.301758,225.81543 445.231445,213.081055 463.081055,213.081055 C483.438477,213.081055 500,229.642578 500,250 C500,270.357422 483.438477,286.918945 463.082031,286.918945 C445.232422,286.918945 430.302734,274.18457 426.895508,257.324219 L426.895508,257.324219 L405.120117,257.324219 C403.378906,294.631836 388.416992,328.541992 364.819336,354.458984 L364.819336,354.458984 L404.039062,393.677734 C411.759766,388.054688 421.253906,384.725586 431.515625,384.725586 C437.413086,384.725586 443.169922,385.813477 448.62793,387.958008 C452.392578,389.438477 454.245117,393.689453 452.765625,397.454102 C451.285156,401.21875 447.030273,403.071289 443.269531,401.591797 C439.525391,400.120117 435.570312,399.374023 431.514648,399.374023 C413.793945,399.374023 399.375977,413.791016 399.375977,431.512695 C399.375977,449.234375 413.793945,463.651367 431.514648,463.651367 C449.235352,463.651367 463.65332,449.233398 463.65332,431.512695 C463.65332,428.026367 463.098633,424.595703 462.006836,421.319336 C460.727539,417.481445 462.801758,413.333984 466.639648,412.054687 C470.473633,410.776367 474.623047,412.850586 475.90332,416.6875 C477.494141,421.461914 478.300781,426.449219 478.300781,431.513672 C478.300781,457.3125 457.3125,478.300781 431.513672,478.300781 C405.714844,478.300781 384.726563,457.311523 384.726563,431.513672 C384.726563,421.25293 388.055664,411.758789 393.678711,404.037109 L393.678711,404.037109 L354.458984,364.818359 C328.541992,388.417969 294.631836,403.378906 257.324219,405.120117 L257.324219,405.120117 L257.324219,426.894531 C274.18457,430.301758 286.918945,445.231445 286.918945,463.081055 C286.918945,483.438477 270.357422,500 250,500 C229.642578,500 213.081055,483.438477 213.081055,463.080078 C213.081055,445.230469 225.81543,430.300781 242.675781,426.893555 L242.675781,426.893555 L242.675781,405.119141 C205.368164,403.378906 171.458008,388.416992 145.541016,364.817383 L145.541016,364.817383 L106.318359,404.039062 C111.941406,411.759766 115.269531,421.25293 115.269531,431.513672 C115.269531,457.30957 94.2832031,478.296875 68.4863281,478.296875 C42.6894531,478.296875 21.703125,457.310547 21.703125,431.513672 C21.703125,405.716797 42.6894531,384.729492 68.4863281,384.729492 C78.7470703,384.729492 88.2402344,388.058594 95.9609375,393.680664 L95.9609375,393.680664 L135.183594,354.458984 C111.583008,328.541992 96.6220703,294.631836 94.8808594,257.324219 L94.8808594,257.324219 L73.1054688,257.324219 C69.6982422,274.18457 54.7685547,286.918945 36.9189453,286.918945 C16.5615234,286.918945 0,270.357422 0,250 C0,229.642578 16.5615234,213.081055 36.9189453,213.080078 C54.7685547,213.080078 69.6982422,225.814453 73.1054688,242.674805 L73.1054688,242.674805 L94.8798828,242.674805 C96.6210938,205.367187 111.582031,171.457031 135.182617,145.540039 L135.182617,145.540039 L95.9628906,106.321289 C88.2421875,111.944336 78.7480469,115.273437 68.4863281,115.273437 C42.6875,115.273437 21.6992188,94.2851562 21.6992188,68.4863281 C21.6992188,47.6582031 35.6826172,29.1435547 55.7060547,23.4619141 C59.5947266,22.3603516 63.6464844,24.6171875 64.7509766,28.5087891 C65.8554688,32.4003906 63.5957031,36.4501953 59.7041016,37.5546875 C45.9521484,41.4560547 36.3476563,54.1757812 36.3476563,68.4863281 C36.3476563,86.2070312 50.7646484,100.625 68.4853516,100.625 C86.2060547,100.625 100.624023,86.2070312 100.624023,68.4863281 C100.624023,57.7841797 95.3222656,47.8164062 86.4394531,41.8232422 C83.0869141,39.5605469 82.203125,35.0087891 84.4658203,31.6552734 C86.7265625,28.3017578 91.2783203,27.4189453 94.6337891,29.6806641 C107.557617,38.4013672 115.273438,52.9082031 115.273438,68.4863281 C115.273438,78.7470703 111.944336,88.2412109 106.321289,95.9628906 L106.321289,95.9628906 L145.541016,135.181641 C171.458008,111.582031 205.368164,96.6210937 242.675781,94.8798828 L242.675781,94.8798828 L242.675781,73.1054687 C225.81543,69.6982422 213.081055,54.7685547 213.081055,36.9189453 C213.081055,16.5615234 229.642578,0 250,0 Z M250,440.810547 C237.720703,440.810547 227.729492,450.800781 227.729492,463.081055 C227.729492,475.361328 237.720703,485.351562 250,485.351562 C262.279297,485.351562 272.270508,475.361328 272.270508,463.081055 C272.270508,450.801758 262.279297,440.810547 250,440.810547 Z M68.4863281,399.37793 C50.7675781,399.37793 36.3515625,413.793945 36.3515625,431.513672 C36.3515625,449.232422 50.7666016,463.648437 68.4863281,463.648437 C86.2050781,463.648437 100.621094,449.233398 100.621094,431.513672 C100.621094,413.793945 86.2050781,399.37793 68.4863281,399.37793 Z M250,109.351562 C172.446289,109.351562 109.351562,172.445312 109.351562,250 C109.351562,327.554688 172.446289,390.648438 250,390.648438 C327.553711,390.648438 390.648438,327.553711 390.648438,250 C390.648438,172.446289 327.553711,109.351562 250,109.351562 Z M250.000977,144.027344 C281.237305,144.027344 306.649414,169.439453 306.649414,200.675781 C306.649414,217.316406 299.43457,232.302734 287.97168,242.675781 L287.97168,242.675781 L293.40918,242.675781 C319.202148,242.675781 340.185547,263.664062 340.185547,289.462891 L340.185547,289.462891 L340.185547,332.861328 C340.185547,336.90625 336.907227,340.185547 332.861328,340.185547 L332.861328,340.185547 L291.499023,340.185547 C291.476562,340.185547 291.455078,340.188477 291.432617,340.188477 C291.410156,340.188477 291.388672,340.185547 291.366211,340.185547 L291.366211,340.185547 L267.089844,340.185547 C263.043945,340.185547 259.765625,336.90625 259.765625,332.861328 C259.765625,328.816406 263.043945,325.537109 267.089844,325.537109 L267.089844,325.537109 L284.106445,325.537109 L284.106445,313.134766 C284.106445,309.089844 287.384766,305.810547 291.430664,305.810547 C295.476562,305.810547 298.754883,309.089844 298.754883,313.134766 L298.754883,313.134766 L298.754883,325.537109 L325.535156,325.537109 L325.535156,289.462891 C325.535156,271.742187 311.123047,257.324219 293.407227,257.324219 L293.407227,257.324219 L206.59082,257.324219 C188.875977,257.324219 174.462891,271.742187 174.462891,289.462891 L174.462891,289.462891 L174.462891,325.537109 L201.243164,325.537109 L201.243164,313.134766 C201.243164,309.089844 204.521484,305.810547 208.567383,305.810547 C212.613281,305.810547 215.891602,309.089844 215.891602,313.134766 L215.891602,313.134766 L215.891602,325.537109 L232.910156,325.537109 C236.956055,325.537109 240.234375,328.816406 240.234375,332.861328 C240.234375,336.90625 236.956055,340.185547 232.910156,340.185547 L232.910156,340.185547 L208.633789,340.185547 C208.611328,340.185547 208.589844,340.188477 208.567383,340.188477 C208.544922,340.188477 208.523437,340.185547 208.500977,340.185547 L208.500977,340.185547 L167.138672,340.185547 C163.09375,340.185547 159.814453,336.90625 159.816405,332.861328 L159.816405,332.861328 L159.816405,289.462891 C159.816405,263.664062 180.799805,242.675781 206.592773,242.675781 L206.592773,242.675781 L212.030273,242.675781 C200.567383,232.302734 193.352539,217.316406 193.352539,200.675781 C193.352539,169.439453 218.764648,144.027344 250.000977,144.027344 Z M463.081055,227.729492 C450.801758,227.729492 440.810547,237.719727 440.810547,250 C440.810547,262.280273 450.800781,272.270508 463.081055,272.270508 C475.361328,272.270508 485.351562,262.280273 485.351562,250 C485.351562,237.719727 475.361328,227.729492 463.081055,227.729492 Z M36.9189453,227.729492 C24.6386719,227.729492 14.6484375,237.719727 14.6484375,250 C14.6484375,262.280273 24.6386719,272.270508 36.9189453,272.270508 C49.1982422,272.270508 59.1884766,262.280273 59.1884766,250 C59.1884766,237.719727 49.1992187,227.729492 36.9189453,227.729492 Z M250,158.675781 C226.84082,158.675781 208,177.517578 208,200.675781 C208,223.834961 226.84082,242.675781 250,242.675781 C273.15918,242.675781 292,223.834961 292,200.675781 C292,177.516602 273.15918,158.675781 250,158.675781 Z M431.513672,36.3515625 C413.794922,36.3515625 399.378906,50.7666016 399.378906,68.4863281 C399.378906,86.2060547 413.794922,100.62207 431.513672,100.62207 C449.232422,100.62207 463.648437,86.2060547 463.648437,68.4863281 C463.648437,50.7675781 449.233398,36.3515625 431.513672,36.3515625 Z M250,14.6484375 C237.720703,14.6484375 227.729492,24.6386719 227.729492,36.9189453 C227.729492,49.1982422 237.720703,59.1894531 250,59.1894531 C262.279297,59.1894531 272.270508,49.1992188 272.270508,36.9189453 C272.270508,24.6386719 262.279297,14.6484375 250,14.6484375 Z" id="Combined-Shape" fill="#FFFFFF"/>
        </svg>