<svg xmlns="http://www.w3.org/2000/svg" width="35" height="35" viewBox="0 0 35 35">
    <g fill="none" fill-rule="evenodd">
        <g fill-rule="nonzero">
            <g>
                <g fill="#FFF">
                    <path d="M17.5.7C8.222.7.7 8.222.7 17.5c0 9.279 7.522 16.8 16.8 16.8 9.279 0 16.8-7.521 16.8-16.8C34.3 8.222 26.779.7 17.5.7zm-4.113 23.763H9.985V13.515h3.402v10.948zm-1.722-12.292c-1.074 0-1.769-.761-1.769-1.702 0-.961.716-1.7 1.813-1.7 1.098 0 1.77.739 1.79 1.7 0 .941-.693 1.702-1.834 1.702zm14.148 12.292H22.41v-6.067c0-1.412-.494-2.371-1.724-2.371-.94 0-1.498.649-1.745 1.274-.091.222-.114.537-.114.85v6.313h-3.403v-7.456c0-1.366-.044-2.509-.09-3.492h2.956l.156 1.52h.068c.448-.714 1.545-1.767 3.381-1.767 2.238 0 3.916 1.5 3.916 4.723v6.473z" transform="translate(-92 -830) translate(92 830)"/>
                </g>
                <path d="M0 0H35V35H0z" transform="translate(-92 -830) translate(92 830)"/>
            </g>
        </g>
    </g>
</svg>
