<svg xmlns="http://www.w3.org/2000/svg" width="75" height="75" viewBox="0 0 75 75">
    <g fill="none" fill-rule="evenodd">
        <g>
            <g>
                <path fill="#FFF" d="M52.339 9.325c.531-.182 1.122-.098 1.58.226.458.323.731.848.731 1.405v4.957h1.65c.961 0 1.743.775 1.743 1.726v1.207h5.383c2.017 0 3.657 1.625 3.657 3.622l.001 34.246c0 .593-.146 1.153-.402 1.647h1.998c1.576 0 2.858 1.27 2.858 2.832v2.898c0 1.562-1.282 2.832-2.858 2.832H50.32c-.55 0-.996-.442-.996-.988s.446-.988.997-.988H68.68c.476 0 .864-.384.864-.856v-2.898c0-.472-.388-.856-.864-.856H44.215v.694c0 1.36-1.118 2.468-2.49 2.468h-8.45c-1.372 0-2.49-1.107-2.49-2.468v-.694H6.32c-.476 0-.864.384-.864.856v2.898c0 .472.388.856.864.856h39.647c.551 0 .997.442.997.988s-.446.988-.997.988H6.32c-1.576 0-2.858-1.27-2.858-2.832v-2.898c0-1.561 1.282-2.832 2.858-2.832h1.998c-.256-.494-.4-1.053-.4-1.646l-.002-26.506c0-.545.447-.988.997-.988.551 0 .998.443.998.988v26.506c0 .908.746 1.646 1.663 1.646l51.854-.001c.916 0 1.662-.739 1.662-1.646l-.002-34.246c0-.908-.745-1.647-1.662-1.647h-5.383v1.976h4.054c.55 0 .997.442.997.988l.001 31.611c0 .262-.105.514-.292.699-.187.185-.44.29-.705.29H12.903c-.55 0-.997-.442-.997-.987l-.001-31.612c0-.262.105-.513.292-.698.187-.186.44-.29.705-.29h4.055v-1.975h-5.385c-.916 0-1.662.738-1.662 1.646v3.513c0 .546-.446.988-.997.988-.55 0-.997-.442-.997-.988v-3.513c0-1.997 1.64-3.622 3.656-3.622h5.385v-1.208c0-.952.782-1.726 1.742-1.726h1.65v-4.957c0-.557.274-1.082.732-1.405.458-.324 1.049-.408 1.58-.226L37.5 14.41l7.677-2.63c.52-.179 1.088.095 1.268.61.18.516-.096 1.079-.617 1.257l-7.33 2.512v23.759l14.158-4.85v-23.76l-2.807.962c-.52.178-1.088-.096-1.268-.611-.18-.516.096-1.078.617-1.257zM42.22 60.337h-9.44v.694c0 .271.222.492.496.492h8.448c.274 0 .496-.22.496-.492v-.694zM61.1 24.773h-3.057v15.793c0 .951-.782 1.726-1.742 1.726H18.699c-.96 0-1.742-.775-1.742-1.726V24.774H13.9L13.9 54.41l47.2-.002V24.773zM41.39 49.3c.552 0 .998.442.998.987 0 .546-.446.988-.997.988H24.4c-.55 0-.997-.442-.997-.988 0-.545.447-.987.998-.987zm9.208-4.191c.551 0 .998.442.998.988s-.447.988-.998.988H24.402c-.551 0-.998-.442-.998-.988s.447-.988.998-.988zM20.35 17.889h-1.398v22.427h12.613l-10.043-3.44c-.701-.241-1.172-.897-1.172-1.632V17.89zm35.698 0H54.65v17.355c0 .735-.47 1.39-1.172 1.631l-10.043 3.44h12.613V17.89zm-33.704-6.582v23.76l14.159 4.85v-23.76l-14.159-4.85z" transform="translate(-515 -828) translate(515 828)"/>
                <path d="M0 0H75V75H0z" transform="translate(-515 -828) translate(515 828)"/>
            </g>
        </g>
    </g>
</svg>
