<svg xmlns="http://www.w3.org/2000/svg" width="75px" height="75px" viewBox="0 0 75 75">
<g fill="none" fill-rule="evenodd">
<path
        fill="#FFF"
        d="M18.489 68.811h36.995v-5.772H18.489v5.772zm-4.103-42.575h17.055a4.029 4.029 0 002.857-1.189 4.038 4.038 0 001.189-2.856V11.037c0-1.11-.456-2.123-1.189-2.856a4.029 4.029 0 00-2.857-1.189H9.585a4.03 4.03 0 00-2.857 1.189 4.035 4.035 0 00-1.188 2.856v11.154c0 1.11.455 2.122 1.188 2.856a4.03 4.03 0 002.857 1.189c.549 0 .994.448.994.998v2.396l3.104-3.1a.984.984 0 01.703-.294zm16.363 1.991a2.788 2.788 0 002.627 1.84h5.851c.55 0 .993.444.993.997 0 .55-.444.993-.993.993h-5.851a4.756 4.756 0 01-3.391-1.414 4.851 4.851 0 01-1.303-2.416H14.8l-4.507 4.508a.999.999 0 01-1.705-.7v-3.891a5.995 5.995 0 01-3.267-1.69 6.003 6.003 0 01-1.773-4.263V11.037c0-1.66.678-3.168 1.773-4.263A6.02 6.02 0 019.585 5h21.856c1.664 0 3.173.682 4.264 1.774a6.014 6.014 0 011.772 4.263v1.844h16.912c1.321 0 2.518.538 3.387 1.407a4.778 4.778 0 011.407 3.387v9.588a4.809 4.809 0 01-3.801 4.69v3.914a.988.988 0 01-.289.703.999.999 0 01-1.408 0l-4.512-4.512h-5.437a.995.995 0 110-1.991h5.852c.278 0 .526.113.707.298l3.097 3.096v-2.397c0-.553.447-.997.997-.997.768 0 1.472-.316 1.98-.824s.824-1.208.824-1.98v-9.588c0-.771-.316-1.472-.824-1.979a2.802 2.802 0 00-1.98-.825H37.477v7.32a6.002 6.002 0 01-1.772 4.263 6.005 6.005 0 01-4.264 1.773h-.692zM11.298 17.611a.997.997 0 010-1.991h18.431a.996.996 0 010 1.991H11.298zm0 5.238a.996.996 0 010-1.994h9.215a.998.998 0 010 1.994h-9.215zm0-10.477a.996.996 0 010-1.99h18.431a.995.995 0 010 1.99H11.298zm20.693 35.897c-1.039.402-1.957.915-2.612 1.502-.568.504-.918 1.046-.918 1.576v4.038h.387c1.054 0 2.014.429 2.706 1.121a3.826 3.826 0 01.652 4.542h9.557a3.824 3.824 0 01-.466-1.836c0-1.057.429-2.013 1.122-2.706a3.812 3.812 0 012.705-1.121h.384v-4.038c0-.549-.377-1.113-.986-1.637-.715-.613-1.709-1.143-2.815-1.547a6.35 6.35 0 01-9.716.106zm-16.87-8.587v-1.329a2 2 0 00-.591-1.419 2.015 2.015 0 00-1.423-.594h-4.73c-.549 0-1.054.23-1.419.594a2 2 0 00-.591 1.419v5.189c.433.098.828.155 1.189.173.938.046 1.612-.173 2.089-.556.486-.391.805-.979 1.013-1.645.183-.598.274-1.253.305-1.9a.993.993 0 011.677-.673c.14.124 1.126.932 2.481.741zm43.727 0c1.328.188 2.299-.584 2.473-.734.195-.165.38-.267.646-.279a.991.991 0 011.039.945c.035.647.125 1.302.309 1.9.203.666.523 1.253 1.009 1.645.477.383 1.151.602 2.088.556a7.074 7.074 0 001.193-.173v-5.189a2 2 0 00-.595-1.419 2.007 2.007 0 00-1.419-.595h-4.729c-.554 0-1.055.231-1.419.595a2.004 2.004 0 00-.595 1.419v1.329zm8.487 5.931a7.365 7.365 0 01-.829.086c-1.471.075-2.585-.317-3.424-.994-.832-.666-1.355-1.591-1.667-2.608a8.16 8.16 0 01-.2-.805 5.023 5.023 0 01-2.367.384v2.435c0 1.2.493 2.296 1.287 3.09a4.366 4.366 0 003.093 1.286 4.364 4.364 0 003.09-1.286 4.437 4.437 0 001.017-1.588zm1.129 2.114a4.73 4.73 0 011.391 1.122 4.662 4.662 0 011.114 3.025v6.713a.994.994 0 01-1.99 0v-6.713c0-.662-.241-1.272-.64-1.742a2.738 2.738 0 00-1.377-.873 6.303 6.303 0 01-3.734 1.219 6.333 6.333 0 01-3.846-1.298 1.823 1.823 0 00-1.264.719l-5.347 7.082a1 1 0 01-.794.398h-6.852a1.828 1.828 0 00-1.837 1.833c0 .508.207.967.538 1.298.331.331.79.538 1.299.538h8.184c.327 0 .579-.033.892-.191.58-.29 1.121-1.17 1.516-1.697l3.541-4.685a.993.993 0 111.584 1.196l-3.367 4.463v8.678h11.504v-5.717a.995.995 0 011.99 0v6.714c0 .55-.444.993-.993.993H3.997A.995.995 0 013 69.809v-6.714a.995.995 0 011.99 0v5.717h11.508v-8.678l-3.372-4.463a.992.992 0 01.196-1.392.992.992 0 011.392.196l3.462 4.583c.316.418.632.839.949 1.261.18.237.402.418.647.538.275.138.53.191.831.191h8.245c.505 0 .964-.207 1.298-.538a1.84 1.84 0 000-2.597 1.838 1.838 0 00-1.298-.534h-6.856a.993.993 0 01-.794-.398l-5.347-7.082a1.84 1.84 0 00-1.264-.719 6.334 6.334 0 01-3.843 1.298 6.339 6.339 0 01-3.737-1.215 2.699 2.699 0 00-2.017 2.611v6.713a.995.995 0 01-1.99 0v-6.713c0-1.163.432-2.235 1.143-3.059a4.791 4.791 0 011.366-1.088 6.314 6.314 0 01-1.132-3.616v-5.757c0-1.104.448-2.105 1.174-2.83a3.996 3.996 0 012.826-1.174h4.73c1.103 0 2.104.451 2.83 1.174a3.987 3.987 0 011.174 2.83v5.757a6.33 6.33 0 01-1.031 3.466c.538.271.994.643 1.358 1.125l5.047 6.683h3.985v-4.038c0-1.144.606-2.179 1.588-3.056.76-.676 1.761-1.267 2.867-1.734a6.34 6.34 0 01-.489-2.446v-5.758a4 4 0 011.175-2.829 4.004 4.004 0 012.829-1.175h7.737c.55 0 .997.448.997.998v8.764c0 .816-.157 1.599-.439 2.322 1.188.467 2.265 1.068 3.078 1.769 1.042.895 1.686 1.963 1.686 3.145v4.038h3.985l5.046-6.683a3.82 3.82 0 011.362-1.122 6.326 6.326 0 01-1.034-3.469v-5.758a4 4 0 011.174-2.829 4.004 4.004 0 012.83-1.175h4.73c1.103 0 2.104.452 2.83 1.175a4.003 4.003 0 011.174 2.829v5.758a6.35 6.35 0 01-1.132 3.616zM41.18 41.081h-8.753v3.03c0 1.2.494 2.296 1.287 3.09a4.352 4.352 0 006.179 0 4.367 4.367 0 001.287-3.09v-3.03zm-8.753-1.99h8.753V36.34h-6.74c-.553 0-1.057.23-1.422.595a1.997 1.997 0 00-.591 1.418v.738zM6.634 45.613a4.404 4.404 0 001.02 1.588 4.359 4.359 0 003.09 1.286c1.2 0 2.296-.492 3.09-1.286s1.287-1.89 1.287-3.09v-2.435a5.012 5.012 0 01-2.364-.384 8.168 8.168 0 01-.203.805c-.312 1.017-.836 1.942-1.664 2.608-.839.678-1.952 1.069-3.427.994a7.437 7.437 0 01-.829-.086z"
/>
<path d="M0 0h75v75H0z" />
</g>
        </svg>