<svg xmlns="http://www.w3.org/2000/svg" width="35" height="35" viewBox="0 0 35 35">
    <g fill="none" fill-rule="evenodd">
        <g fill-rule="nonzero">
            <g>
                <g>
                    <g fill="#FFF">
                        <path d="M17.5.7C8.222.7.7 8.222.7 17.5c0 9.279 7.522 16.8 16.8 16.8 9.279 0 16.8-7.521 16.8-16.8C34.3 8.222 26.779.7 17.5.7zm6.834 13.762c.007.143.009.287.009.427 0 4.375-3.327 9.417-9.414 9.417-1.798.003-3.56-.514-5.071-1.488.257.032.521.044.789.044 1.55 0 2.977-.527 4.109-1.416-1.414-.028-2.656-.95-3.09-2.296.495.094 1.005.075 1.492-.057-1.544-.313-2.654-1.67-2.654-3.245v-.04c.446.247.957.397 1.5.415-1.458-.97-1.907-2.909-1.024-4.421 1.68 2.067 4.159 3.324 6.82 3.46-.345-1.46.336-2.969 1.658-3.677 1.323-.707 2.956-.438 3.98.658.74-.147 1.45-.418 2.1-.803-.247.766-.764 1.418-1.454 1.832.655-.079 1.296-.255 1.9-.523-.444.665-1.003 1.245-1.65 1.713z" transform="translate(-222 -830) translate(92 830) translate(130)"/>
                    </g>
                    <path d="M0 0H35V35H0z" transform="translate(-222 -830) translate(92 830) translate(130)"/>
                </g>
            </g>
        </g>
    </g>
</svg>