<svg xmlns="http://www.w3.org/2000/svg" fill="#fff" height="50" viewBox="0 0 512 512" width="50">
<path d="M445.322266,0.615234375 C465.682617,0.615234375 482.246094,17.1748047 482.246094,37.5292969 L482.246094,37.5292969 L482.246094,62.0810547 C482.246094,66.1269531 478.966797,69.4052734 474.921875,69.4052734 C470.876953,69.4052734 467.597656,66.1269531 467.597656,62.0810547 L467.597656,62.0810547 L467.597656,37.5292969 C467.597656,25.2519531 457.605469,15.2636719 445.322266,15.2636719 L445.322266,15.2636719 L54.6777344,15.2636719 C42.3945312,15.2636719 32.4023438,25.2519531 32.4023438,37.5292969 L32.4023438,37.5292969 L32.4023438,316.289062 L467.597656,316.289062 L467.597656,96.2597656 C467.597656,92.2138672 470.876953,88.9355469 474.921875,88.9355469 C478.966797,88.9355469 482.246094,92.2138672 482.246094,96.2597656 L482.246094,96.2597656 L482.246094,316.289062 L492.675781,316.289062 C496.720703,316.289062 500,319.567383 500,323.613281 L500,323.613281 L500,351.240234 C500,366.155273 487.865234,378.291016 472.949219,378.291016 L472.949219,378.291016 L416.357422,378.291016 C412.3125,378.291016 409.033203,375.012695 409.033203,370.966797 C409.033203,366.920898 412.3125,363.642578 416.357422,363.642578 L416.357422,363.642578 L472.949219,363.642578 C479.788086,363.642578 485.351562,358.079102 485.351562,351.240234 L485.351562,351.240234 L485.351562,330.9375 L14.6484375,330.9375 L14.6484375,351.240234 C14.6484375,358.079102 20.2119141,363.642578 27.0507812,363.642578 L27.0507812,363.642578 L382.177734,363.642578 C386.222656,363.642578 389.501953,366.920898 389.501953,370.966797 C389.501953,375.012695 386.222656,378.291016 382.177734,378.291016 L382.177734,378.291016 L27.0507812,378.291016 C12.1347656,378.291016 0,366.155273 0,351.240234 L0,351.240234 L0,323.613281 C0,319.567383 3.27929687,316.289062 7.32421875,316.289062 L7.32421875,316.289062 L17.7539062,316.289062 L17.7539062,37.5292969 C17.7539062,17.1748047 34.3173828,0.615234375 54.6777344,0.615234375 L54.6777344,0.615234375 Z M437.431641,32.1875 C444.733398,32.1875 450.673828,38.1279297 450.673828,45.4296875 L450.673828,45.4296875 L450.673828,286.132813 C450.673828,293.43457 444.733398,299.375 437.431641,299.375 L437.431641,299.375 L62.5683594,299.375 C55.2666016,299.375 49.3261719,293.43457 49.3261719,286.132813 L49.3261719,286.132813 L49.3261719,254.882813 C49.3261719,250.836914 52.6054688,247.558594 56.6503906,247.558594 C60.6953125,247.558594 63.9746094,250.836914 63.9746094,254.882813 L63.9746094,254.882813 L63.9746094,284.726563 L80.8916016,284.726563 L80.8916016,71.0742188 C80.8916016,67.0283203 84.1708984,63.75 88.2158203,63.75 L88.2158203,63.75 L411.783203,63.75 C415.828125,63.75 419.107422,67.0283203 419.107422,71.0742188 L419.107422,71.0742188 L419.107422,284.726563 L436.025391,284.726563 L436.025391,46.8359375 L63.9746094,46.8359375 L63.9746094,220.703125 C63.9746094,224.749023 60.6953125,228.027344 56.6503906,228.027344 C52.6054687,228.027344 49.3261719,224.749023 49.3261719,220.703125 L49.3261719,220.703125 L49.3261719,45.4296875 C49.3261719,38.1279297 55.2666016,32.1875 62.5683594,32.1875 L62.5683594,32.1875 Z M242.675781,188.885742 L95.5400391,188.885742 L95.5400391,284.723633 L122.324219,284.723633 L122.324219,272.318359 C122.324219,258.807617 132.280273,247.579102 145.240234,245.581055 C143.208984,241.786133 142.053711,237.456055 142.053711,232.859375 C142.053711,217.942383 154.19043,205.805664 169.107422,205.805664 C184.025391,205.805664 196.162109,217.942383 196.162109,232.859375 C196.162109,237.456055 195.006836,241.786133 192.975586,245.581055 C205.935547,247.579102 215.891602,258.807617 215.891602,272.318359 L215.891602,272.318359 L215.891602,284.723633 L242.675781,284.723633 L242.675781,188.885742 Z M404.459961,188.885742 L257.324219,188.885742 L257.324219,284.723633 L284.108398,284.723633 L284.108398,272.318359 C284.108398,258.807617 294.064453,247.579102 307.024414,245.581055 C304.993164,241.786133 303.837891,237.456055 303.837891,232.859375 C303.837891,217.942383 315.974609,205.805664 330.892578,205.805664 C345.80957,205.805664 357.946289,217.942383 357.946289,232.859375 C357.946289,237.456055 356.791016,241.786133 354.759766,245.581055 C367.719727,247.579102 377.675781,258.807617 377.675781,272.318359 L377.675781,272.318359 L377.675781,284.723633 L404.459961,284.723633 L404.459961,188.885742 Z M350.62207,259.913086 L311.162109,259.913086 C304.322266,259.913086 298.756836,265.477539 298.756836,272.318359 L298.756836,272.318359 L298.756836,284.723633 L363.027344,284.723633 L363.027344,272.318359 C363.027344,265.477539 357.461914,259.913086 350.62207,259.913086 L350.62207,259.913086 Z M188.837891,259.913086 L149.37793,259.913086 C142.538086,259.913086 136.972656,265.477539 136.972656,272.318359 L136.972656,272.318359 L136.972656,284.723633 L201.243164,284.723633 L201.243164,272.318359 C201.243164,265.477539 195.677734,259.913086 188.837891,259.913086 L188.837891,259.913086 Z M330.892578,220.453125 C324.051758,220.453125 318.486328,226.017578 318.486328,232.858398 C318.486328,239.699219 324.051758,245.263672 330.892578,245.263672 C337.732422,245.263672 343.297852,239.699219 343.297852,232.858398 C343.297852,226.017578 337.732422,220.453125 330.892578,220.453125 Z M169.107422,220.453125 C162.267578,220.453125 156.702148,226.017578 156.702148,232.858398 C156.702148,239.699219 162.267578,245.263672 169.107422,245.263672 C175.948242,245.263672 181.513672,239.699219 181.513672,232.858398 C181.513672,226.017578 175.948242,220.453125 169.107422,220.453125 Z M222.87207,200.797852 C227.230482,200.797852 230.763672,204.331042 230.763672,208.689453 C230.763672,213.047864 227.230482,216.581055 222.87207,216.581055 C218.513659,216.581055 214.980469,213.047864 214.980469,208.689453 C214.980469,204.331042 218.513659,200.797852 222.87207,200.797852 Z M384.655273,200.797852 C389.013685,200.797852 392.546875,204.331042 392.546875,208.689453 C392.546875,213.047864 389.013685,216.581055 384.655273,216.581055 C380.296862,216.581055 376.763672,213.047864 376.763672,208.689453 C376.763672,204.331042 380.296862,200.797852 384.655273,200.797852 Z M188.837891,149.425781 L149.37793,149.425781 C142.538086,149.425781 136.972656,154.991211 136.972656,161.832031 L136.972656,161.832031 L136.972656,174.237305 L201.243164,174.237305 L201.243164,161.832031 C201.243164,154.991211 195.677734,149.425781 188.837891,149.425781 L188.837891,149.425781 Z M350.62207,149.425781 L311.162109,149.425781 C304.322266,149.425781 298.756836,154.991211 298.756836,161.832031 L298.756836,161.832031 L298.756836,174.237305 L363.027344,174.237305 L363.027344,161.832031 C363.027344,154.991211 357.461914,149.425781 350.62207,149.425781 L350.62207,149.425781 Z M404.459961,78.3984375 L257.324219,78.3984375 L257.324219,174.237305 L284.108398,174.237305 L284.108398,161.832031 C284.108398,148.320313 294.064453,137.091797 307.024414,135.09375 C304.993164,131.298828 303.837891,126.96875 303.837891,122.37207 C303.837891,107.455078 315.974609,95.3183594 330.892578,95.3183594 C345.80957,95.3183594 357.946289,107.455078 357.946289,122.37207 C357.946289,126.96875 356.791016,131.298828 354.759766,135.09375 C367.719727,137.091797 377.675781,148.320312 377.675781,161.832031 L377.675781,161.832031 L377.675781,174.237305 L404.459961,174.237305 L404.459961,78.3984375 Z M242.675781,78.3984375 L95.5400391,78.3984375 L95.5400391,174.237305 L122.324219,174.237305 L122.324219,161.832031 C122.324219,148.320313 132.280273,137.091797 145.240234,135.09375 C143.208984,131.298828 142.053711,126.96875 142.053711,122.37207 C142.053711,107.455078 154.19043,95.3183594 169.107422,95.3183594 C184.025391,95.3183594 196.162109,107.455078 196.162109,122.37207 C196.162109,126.96875 195.006836,131.298828 192.975586,135.09375 C205.935547,137.091797 215.891602,148.320312 215.891602,161.832031 L215.891602,161.832031 L215.891602,174.237305 L242.675781,174.237305 L242.675781,78.3984375 Z M169.107422,109.966797 C162.267578,109.966797 156.702148,115.53125 156.702148,122.37207 C156.702148,129.211914 162.267578,134.777344 169.107422,134.777344 C175.948242,134.777344 181.513672,129.212891 181.513672,122.37207 C181.513672,115.53125 175.948242,109.966797 169.107422,109.966797 Z M330.892578,109.966797 C324.051758,109.966797 318.486328,115.53125 318.486328,122.37207 C318.486328,129.211914 324.051758,134.777344 330.892578,134.777344 C337.732422,134.777344 343.297852,129.212891 343.297852,122.37207 C343.297852,115.53125 337.732422,109.966797 330.892578,109.966797 Z M222.87207,90.3115234 C227.230482,90.3115234 230.763672,93.8447138 230.763672,98.203125 C230.763672,102.561536 227.230482,106.094727 222.87207,106.094727 C218.513659,106.094727 214.980469,102.561536 214.980469,98.203125 C214.980469,93.8447138 218.513659,90.3115234 222.87207,90.3115234 Z M384.655273,90.3115234 C389.013685,90.3115234 392.546875,93.8447138 392.546875,98.203125 C392.546875,102.561536 389.013685,106.094727 384.655273,106.094727 C380.296862,106.094727 376.763672,102.561536 376.763672,98.203125 C376.763672,93.8447138 380.296862,90.3115234 384.655273,90.3115234 Z" id="Combined-Shape"/>
        </svg>